<svg width="19" height="14" viewBox="0 0 19 14" fill="none" xmlns="http://www.w3.org/2000/svg">
<path d="M15.5791 1.18239C15.574 1.1725 15.5655 1.16474 15.5552 1.16052C14.3639 0.613914 13.1066 0.224141 11.815 0.000956052C11.8033 -0.00122554 11.7912 0.000348287 11.7804 0.0054537C11.7696 0.0105591 11.7607 0.0189362 11.7549 0.0293935C11.5837 0.340109 11.4283 0.659265 11.2893 0.985644C9.89701 0.774294 8.48079 0.774294 7.0885 0.985644C6.94855 0.658436 6.79065 0.339201 6.61553 0.0293935C6.60952 0.0191634 6.60057 0.0109793 6.58985 0.00590705C6.57912 0.000834804 6.56712 -0.000890457 6.5554 0.000956052C5.26365 0.223673 4.00635 0.613474 2.81515 1.16055C2.80495 1.16487 2.79635 1.17225 2.79053 1.18167C0.408371 4.73911 -0.244192 8.20908 0.0759332 11.6361C0.0768337 11.6445 0.0794142 11.6526 0.0835211 11.66C0.087628 11.6674 0.0931774 11.6739 0.0998394 11.679C1.48695 12.7061 3.03844 13.4901 4.68812 13.9975C4.69974 14.0009 4.71214 14.0008 4.72367 13.997C4.7352 13.9932 4.74529 13.986 4.75259 13.9763C5.1069 13.4942 5.42085 12.9837 5.69125 12.45C5.69496 12.4427 5.69708 12.4347 5.69747 12.4265C5.69786 12.4183 5.6965 12.4101 5.69349 12.4024C5.69048 12.3948 5.68589 12.3879 5.68001 12.3821C5.67414 12.3764 5.66711 12.372 5.6594 12.3691C5.16433 12.1797 4.68504 11.9514 4.22603 11.6862C4.21769 11.6813 4.21069 11.6745 4.20564 11.6662C4.20059 11.658 4.19765 11.6486 4.19708 11.6389C4.19651 11.6293 4.19832 11.6196 4.20236 11.6108C4.2064 11.6021 4.21254 11.5944 4.22025 11.5885C4.31656 11.5164 4.41293 11.4413 4.5049 11.3655C4.51307 11.3588 4.52296 11.3545 4.53345 11.3531C4.54394 11.3516 4.55462 11.3532 4.56428 11.3575C7.57143 12.7299 10.8271 12.7299 13.7987 11.3575C13.8083 11.3529 13.8191 11.3512 13.8298 11.3524C13.8404 11.3537 13.8505 11.358 13.8588 11.3648C13.9508 11.4406 14.0471 11.5164 14.1442 11.5885C14.1519 11.5943 14.1581 11.6019 14.1622 11.6107C14.1663 11.6195 14.1682 11.6291 14.1677 11.6387C14.1672 11.6484 14.1643 11.6578 14.1593 11.6661C14.1543 11.6744 14.1474 11.6813 14.1391 11.6862C13.6811 11.9536 13.2014 12.1818 12.705 12.3684C12.6973 12.3714 12.6903 12.3759 12.6845 12.3817C12.6786 12.3875 12.6741 12.3945 12.6711 12.4022C12.6682 12.4099 12.6669 12.4182 12.6674 12.4264C12.6678 12.4346 12.67 12.4427 12.6738 12.45C12.9487 12.9808 13.2622 13.4906 13.6117 13.9755C13.6188 13.9854 13.6289 13.9929 13.6404 13.9968C13.652 14.0007 13.6645 14.0009 13.6762 13.9974C15.3288 13.4917 16.883 12.7077 18.2719 11.679C18.2786 11.6741 18.2843 11.6678 18.2884 11.6605C18.2925 11.6532 18.295 11.6451 18.2958 11.6368C18.679 7.67483 17.6542 4.2333 15.5791 1.18239ZM6.14034 9.54939C5.23496 9.54939 4.48896 8.71855 4.48896 7.69817C4.48896 6.6778 5.2205 5.84689 6.14034 5.84689C7.06737 5.84689 7.80615 6.68502 7.79168 7.69811C7.79168 8.71855 7.06012 9.54939 6.14034 9.54939ZM12.246 9.54939C11.3406 9.54939 10.5946 8.71855 10.5946 7.69817C10.5946 6.6778 11.3262 5.84689 12.246 5.84689C13.1731 5.84689 13.9118 6.68502 13.8973 7.69811C13.8973 8.71855 13.1731 9.54939 12.246 9.54939Z" fill="black"/>
</svg>
