<?xml version="1.0" encoding="UTF-8"?>
<svg version="1.1" xmlns="http://www.w3.org/2000/svg" width="2048" height="2048">
<path d="M0 0 C21.69485749 -0.11661973 43.32310004 -0.00338722 65 1 C65.74631412 3.71983094 66.17081135 6.2668466 66.33889771 9.08025074 C66.38903959 9.88856242 66.43918148 10.6968741 66.49084282 11.52968007 C66.54172113 12.41206293 66.59259945 13.29444578 66.64501953 14.2035675 C66.70233812 15.14534684 66.75965672 16.08712617 66.81871223 17.05744427 C67.01032959 20.22079 67.19654495 23.38443079 67.3828125 26.5480957 C67.51893443 28.81318121 67.65539693 31.07824627 67.79217529 33.34329224 C68.08626449 38.225141 68.37798753 43.10712346 68.66790771 47.98922157 C69.12636417 55.70823886 69.59035971 63.42691701 70.05517578 71.14555359 C70.70631159 81.96726553 71.35522067 92.78910805 72.00195312 103.61108398 C72.04299392 104.29781782 72.08403471 104.98455165 72.12631917 105.6920956 C72.29259154 108.47442269 72.45885334 111.2567504 72.6251024 114.03907888 C73.08239107 121.69200834 73.54008603 129.34491347 73.99804688 136.99780273 C74.03903669 137.68279 74.0800265 138.36777726 74.12225842 139.07352171 C74.80619691 150.50161895 75.49243741 161.92957667 76.18012047 173.35744923 C76.64167967 181.03080501 77.1003055 188.70432885 77.55665588 196.37799609 C77.84117601 201.1530005 78.12805841 205.9278609 78.41556549 210.70268631 C78.54839521 212.91695481 78.68023036 215.13128322 78.81099701 217.34567451 C78.98967152 220.36910956 79.17189401 223.39231095 79.35498047 226.41548157 C79.40585878 227.29117225 79.4567371 228.16686294 79.50915718 229.06908971 C79.79746494 233.76173373 80.2640896 238.35584959 81 243 C81.2423085 242.38281097 81.484617 241.76562195 81.73426819 241.12973022 C102.80894084 187.45166597 102.80894084 187.45166597 111.35757446 165.83108521 C115.39511845 155.61894142 119.4142643 145.39971161 123.421875 135.17578125 C124.14965671 133.31998376 124.8774385 131.46418631 125.60523987 129.60839653 C125.84701462 128.99190302 126.08878937 128.37540951 126.33789062 127.74023438 C126.70182167 126.81228404 126.70182167 126.81228404 127.07310486 125.86558723 C128.2589981 122.84137735 129.44396587 119.81680944 130.62768555 116.79174805 C137.27652239 99.80027613 144.08686054 82.88573464 151 66 C162.88 65.67 174.76 65.34 187 65 C187.66 62.36 188.32 59.72 189 57 C178.13396414 48.67062316 167.23609034 40.39520935 156.18847656 32.30786133 C149.17941842 27.16364542 142.26674225 21.89700796 135.37890625 16.59179688 C130.29730381 12.69242844 125.13624639 8.96383883 119.83813477 5.36303711 C119.23155029 4.91323486 118.62496582 4.46343262 118 4 C118 3.67 118 3.34 118 3 C128.05758273 2.06789495 138.07300109 1.79278717 148.1640625 1.68359375 C149.80716342 1.6629182 151.45026031 1.64191995 153.09335327 1.62062073 C156.52737931 1.5769604 159.96142252 1.5360295 163.39550781 1.49731445 C166.85680817 1.45825205 170.31806074 1.41670719 173.77929688 1.37231445 C175.04691298 1.35606301 175.04691298 1.35606301 176.34013748 1.33948326 C178.03756505 1.31762548 179.73499091 1.29563421 181.43241501 1.27350807 C185.60020675 1.22054815 189.76781276 1.17554185 193.93585205 1.14755249 C195.55261382 1.13617962 197.16937412 1.12459595 198.78613281 1.11279297 C199.56917408 1.10709478 200.35221535 1.1013966 201.15898514 1.09552574 C205.54122114 1.05396652 209.91222018 0.9428191 214.29014778 0.74438763 C216.20949814 0.65935466 218.12972413 0.59486052 220.04989624 0.53102112 C222.32719636 0.45318108 224.60371288 0.34103208 226.87710571 0.18663025 C229.83998886 0.1071112 232.16457621 0.13270053 235 1 C237.74954079 3.65058965 239.3324138 6.59303951 241 10 C241.60062256 10.98863037 242.20124512 11.97726074 242.82006836 12.99584961 C243.32159424 13.87249268 243.82312012 14.74913574 244.33984375 15.65234375 C244.91992188 16.66232422 245.5 17.67230469 246.09765625 18.71289062 C246.70480469 19.77701172 247.31195312 20.84113281 247.9375 21.9375 C248.92992138 23.6673456 249.92234765 25.39718843 250.91506958 27.12686157 C251.93764091 28.90939872 252.95890134 30.69268197 253.97998047 32.47607422 C257.139699 37.99189769 260.32106868 43.49523567 263.5 49 C264.7488157 51.16399453 265.9975133 53.32805723 267.24609375 55.4921875 C267.86468262 56.56436523 268.48327148 57.63654297 269.12060547 58.74121094 C271.00980166 62.01699566 272.89764109 65.29355893 274.78515625 68.5703125 C280.83055159 79.06232094 286.89110219 89.54481676 293 100 C301.02267511 113.73055188 308.95858259 127.51077966 316.89550781 141.29101562 C323.56956312 152.87681766 330.25464084 164.45553353 337 176 C343.73244117 187.52235775 350.40413316 199.07918712 357.06494141 210.64306641 C359.07604754 214.13192703 361.09030995 217.61894828 363.10546875 221.10546875 C363.78525786 222.28205212 364.46502695 223.45864705 365.14477539 224.63525391 C366.42598166 226.85268378 367.70768667 229.06982559 368.98999023 231.28662109 C369.57337158 232.2967627 370.15675293 233.3069043 370.7578125 234.34765625 C371.2645752 235.22429932 371.77133789 236.10094238 372.29345703 237.00415039 C374.5611014 240.98501792 376.78128915 244.99170414 379 249 C368.96907408 249.30181854 358.93923488 249.53248784 348.90468597 249.67355824 C344.24439152 249.74128596 339.58721203 249.83304326 334.92871094 249.98071289 C330.42857073 250.12246225 325.9314153 250.1997851 321.42921448 250.23340416 C319.71603881 250.25734263 318.0030188 250.30410062 316.29112244 250.37449074 C310.92609823 250.58622285 306.16381551 250.5823622 301 249 C297.10595696 245.06330666 295.1782188 241.10100159 293 236 C292.1066821 234.42016157 291.1957845 232.84978028 290.25 231.30078125 C289.49737238 229.97283997 288.74725802 228.64347025 288 227.3125 C287.60683594 226.62478516 287.21367188 225.93707031 286.80859375 225.22851562 C284 220.24252777 284 220.24252777 284 218 C282.80117187 218.01160156 281.60234375 218.02320313 280.3671875 218.03515625 C258.23935049 218.16977427 236.11971597 217.52853414 214 217 C212.43316988 209.08156723 210.86837106 201.16273695 209.30618286 193.24338722 C208.58077689 189.56635572 207.85466504 185.88946652 207.12695312 182.21289062 C206.42504324 178.66653766 205.72497041 175.11982662 205.02618408 171.5728569 C204.75890865 170.21790962 204.49096515 168.86309394 204.22235107 167.50841141 C203.84700047 165.61484125 203.47421887 163.72076239 203.1015625 161.82666016 C202.88838379 160.74744293 202.67520508 159.66822571 202.45556641 158.55630493 C202 156 202 156 202 154 C211.97248469 153.93000401 221.90862611 154.13811989 231.875 154.5 C233.25650264 154.54839969 234.63801306 154.59657773 236.01953125 154.64453125 C239.34643681 154.76085662 242.67324796 154.87937717 246 155 C245.54262451 154.06019287 245.08524902 153.12038574 244.61401367 152.15209961 C229.28200483 120.64252861 229.28200483 120.64252861 222.75 107 C222.33387451 106.13238037 221.91774902 105.26476074 221.48901367 104.37084961 C219.36629269 99.92674218 217.27233944 95.46927102 215.203125 91 C214.57132324 89.63875 214.57132324 89.63875 213.92675781 88.25 C213 86 213 86 213 84 C212.34 84 211.68 84 211 84 C210.88656628 84.55203157 210.77313255 85.10406315 210.65626144 85.67282295 C209.51355226 91.04375378 208.07504446 96.21301142 206.33300781 101.41748047 C206.07235031 102.20803833 205.81169281 102.99859619 205.5431366 103.81311035 C204.68388435 106.41584033 203.81849346 109.01648535 202.953125 111.6171875 C202.33892437 113.47415822 201.72514354 115.33126783 201.11175537 117.18850708 C199.49010442 122.09527786 197.86339637 127.00035655 196.2354126 131.9050293 C193.68288041 139.59819848 191.13834129 147.29401843 188.59272766 154.98947906 C187.95645482 156.91259913 187.31996901 158.83564874 186.68327332 160.75862885 C181.39980259 176.71640473 176.17322514 192.69214533 170.9932251 208.68380737 C166.40808018 222.81735752 161.69934392 236.90196825 157 251 C108.49 251 59.98 251 10 251 C9.34 236.76875 8.68 222.5375 8 207.875 C7.68675781 201.17485596 7.68675781 201.17485596 7.3671875 194.33935547 C7.11328125 188.81665039 7.11328125 188.81665039 6.99462891 186.2180481 C6.91247536 184.43194201 6.82907499 182.64589297 6.74462891 180.8598938 C6.615773 178.12922049 6.49107975 175.39838295 6.3671875 172.66748047 C6.32971405 171.89343809 6.2922406 171.11939571 6.25363159 170.32189751 C5.93793409 163.19528083 6 156.15999324 6 149 C-27.33 149 -60.66 149 -95 149 C-94.67 162.86 -94.34 176.72 -94 191 C-93.93833934 201.87694108 -93.90067607 212.74873957 -93.9375 223.625 C-93.94315719 226.32421722 -93.94717581 229.02343613 -93.95117188 231.72265625 C-93.96187022 238.14845958 -93.97832816 244.57422474 -94 251 C-108.92501288 251.06036446 -123.83895298 250.94574904 -138.76074219 250.62768555 C-141.94978653 250.56093462 -145.1389242 250.50210527 -148.328125 250.44335938 C-150.36198899 250.40151652 -152.39584366 250.35921757 -154.4296875 250.31640625 C-155.38044159 250.29969376 -156.33119568 250.28298126 -157.3107605 250.26576233 C-158.1774234 250.24581711 -159.0440863 250.22587189 -159.93701172 250.20532227 C-160.70036835 250.18977798 -161.46372498 250.1742337 -162.25021362 250.15821838 C-164 250 -164 250 -165 249 C-165.15530075 246.63671992 -165.24716526 244.299929 -165.29759216 241.93360901 C-165.31693144 241.19634815 -165.33627073 240.45908728 -165.35619605 239.69948518 C-165.41897665 237.24189326 -165.47425431 234.78419804 -165.52905273 232.32641602 C-165.57077248 230.59550121 -165.61265491 228.86459032 -165.65469265 227.1336832 C-166.06327645 209.86113285 -166.30311915 192.58665588 -166.50525212 175.31065059 C-166.54635629 171.82854041 -166.58927081 168.34645333 -166.63215441 164.86436468 C-166.73377572 156.61281018 -166.83280411 148.36122769 -166.92993164 140.10961914 C-167.01748377 132.67403856 -167.10765372 125.23849563 -167.20043945 117.80297852 C-167.68600261 78.86639532 -168.13176357 39.9405274 -168 1 C-145.89 1 -123.78 1 -101 1 C-100.690625 7.93 -100.38125 14.86 -100.0625 22 C-99.96718994 24.08957031 -99.87187988 26.17914062 -99.77368164 28.33203125 C-98.9079074 48.22445719 -98.4979863 68.08054808 -98 88 C-65.33 88 -32.66 88 1 88 C0.835 80.53375 0.67 73.0675 0.5 65.375 C0.04174975 43.57978617 -0.12837047 21.79928069 0 0 Z " fill="#000000" transform="translate(1340,704)"/>
<path d="M0 0 C9.17062333 -0.18547009 18.3406001 -0.32755862 27.51269054 -0.41449738 C31.77191146 -0.4562276 36.0298483 -0.51280966 40.28833008 -0.60351562 C44.39924507 -0.69052906 48.50892645 -0.73829045 52.6206913 -0.75901794 C54.18813822 -0.77378526 55.75551852 -0.80262551 57.32243919 -0.84584045 C69.57608436 -1.17030735 69.57608436 -1.17030735 72.99745178 1.64169312 C74.33031637 3.72369496 75.18673716 5.67107625 76 8 C76.51828369 8.94182129 77.03656738 9.88364258 77.57055664 10.85400391 C78.01262451 11.71944824 78.45469238 12.58489258 78.91015625 13.4765625 C79.41877197 14.46543457 79.9273877 15.45430664 80.45141602 16.47314453 C80.98307373 17.51325684 81.51473145 18.55336914 82.0625 19.625 C86.29906962 27.84719051 90.60368046 36.02113787 95.0625 44.125 C99.66199962 52.49006138 104.11047777 60.92379493 108.50244141 69.39941406 C111.89958772 75.93740168 115.38815821 82.41852271 118.9375 88.875 C123.45209174 97.09556626 127.85411955 105.36994487 132.1875 113.6875 C132.75267334 114.76950684 133.31784668 115.85151367 133.90014648 116.96630859 C134.42165283 117.97129395 134.94315918 118.9762793 135.48046875 120.01171875 C135.94348389 120.90334717 136.40649902 121.79497559 136.88354492 122.71362305 C138 125 138 125 139 128 C141.70057066 125.56968847 143.32877168 122.94322326 145.1171875 119.79296875 C145.71732666 118.74286621 146.31746582 117.69276367 146.93579102 116.61083984 C147.57572998 115.4811377 148.21566895 114.35143555 148.875 113.1875 C150.23338523 110.80728112 151.59531197 108.42909389 152.95703125 106.05078125 C153.2994133 105.45177002 153.64179535 104.85275879 153.99455261 104.2355957 C157.13250648 98.75129511 160.33655182 93.30786039 163.5625 87.875 C167.98773085 80.4127401 172.383552 72.93431731 176.75 65.4375 C182.62682101 55.34762307 188.52558257 45.27083998 194.43652344 35.20092773 C195.0865332 34.09305908 195.73654297 32.98519043 196.40625 31.84375 C196.76461945 31.27970963 197.12298889 30.71566925 197.49221802 30.13453674 C199.9718896 26.14528991 201.68717863 22.22663617 203.28173828 17.80273438 C206.07190934 10.84321439 208.89172989 4.60863493 215 0 C225.98818553 -4.31017481 239.69820998 -2.34916987 251.1920166 -1.64794922 C255.68128644 -1.40039496 260.17381297 -1.29241644 264.66796875 -1.171875 C273.45426298 -0.91600176 282.22467199 -0.50776907 291 0 C291.06122723 40.62739325 290.94217942 81.24980354 290.61291331 121.87588149 C290.57284207 126.82061813 290.53396931 131.76536313 290.49563599 136.71011353 C290.28545341 163.74603934 290.07112725 190.78198457 289.7109375 217.81640625 C289.70030903 218.61419935 289.68968056 219.41199245 289.67873001 220.23396111 C289.4858208 234.48987168 289.23702364 248.74472125 289 263 C252.37 262.505 252.37 262.505 215 262 C215 245.96740842 215.00901283 229.97705156 215.35571289 213.95483398 C215.9875704 183.96697865 216.12017376 153.99352249 216 124 C215.66492432 124.57516357 215.32984863 125.15032715 214.98461914 125.74291992 C207.48265974 138.61768232 199.96451502 151.48274375 192.42349243 164.33465576 C188.60105422 170.84917316 184.78336555 177.36630539 180.984375 183.89453125 C180.35337891 184.97863281 179.72238281 186.06273437 179.07226562 187.1796875 C177.89794864 189.19855614 176.72468966 191.21804073 175.55273438 193.23828125 C175.02486328 194.14578125 174.49699219 195.05328125 173.953125 195.98828125 C173.50098633 196.76727783 173.04884766 197.54627441 172.58300781 198.34887695 C172.06061523 199.22374756 171.53822266 200.09861816 171 201 C170.72247391 201.68125946 170.44494781 202.36251892 170.15901184 203.06442261 C169.00118313 205.52842101 168.01324445 207.15369618 166 209 C161.68280867 210.13391512 157.47996905 209.93129517 153.04296875 209.78125 C151.78486893 209.76993042 150.5267691 209.75861084 149.23054504 209.74694824 C145.89635763 209.70978511 142.56659989 209.63803541 139.23364258 209.54931641 C135.82867596 209.46724944 132.42325015 209.43089334 129.01757812 209.390625 C122.3438325 209.30245051 115.67217183 209.16860722 109 209 C103.00987054 198.30028763 97.11634384 187.56007703 91.4079895 176.70736694 C89.49005055 173.06164267 87.56491349 169.41971941 85.640625 165.77734375 C85.25375015 165.04471817 84.86687531 164.31209259 84.46827698 163.55726624 C80.84446214 156.69794479 77.19895342 149.85034317 73.53817749 143.01068115 C72.58547733 141.23043615 71.63415223 139.44945549 70.68286133 137.66845703 C70.10818115 136.5957959 69.53350098 135.52313477 68.94140625 134.41796875 C68.44326416 133.48750732 67.94512207 132.5570459 67.43188477 131.59838867 C66.01441892 129.02616549 64.52738329 126.50824044 63 124 C62.20343586 127.57576334 61.81430569 130.99255912 61.65196228 134.65046692 C61.60010269 135.77642273 61.5482431 136.90237854 61.49481201 138.06245422 C61.41604828 139.90096199 61.41604828 139.90096199 61.33569336 141.77661133 C61.27702591 143.07456635 61.21835846 144.37252136 61.15791321 145.70980835 C60.99749152 149.26090408 60.84183125 152.81219433 60.68703151 156.36353898 C60.52431239 160.07790698 60.35720604 163.79207754 60.19056702 167.50627136 C59.87584014 174.536039 59.56505341 181.56597506 59.25568539 188.59598035 C58.90322129 196.60091726 58.54635981 204.60565625 58.18913066 212.61038172 C57.45453074 229.07337268 56.72544748 245.53660314 56 262 C46.77729522 262.02313993 37.55460039 262.04092354 28.33187294 262.05181217 C24.04968874 262.05703738 19.76752436 262.06412848 15.48535156 262.07543945 C11.35512471 262.08628117 7.22491695 262.09227957 3.09467697 262.09487724 C1.5165718 262.09672917 -0.06153229 262.10034535 -1.63962936 262.10573006 C-3.84489984 262.11295752 -6.05009074 262.11399022 -8.25537109 262.11352539 C-9.51223724 262.115746 -10.76910339 262.11796661 -12.0640564 262.12025452 C-15 262 -15 262 -17 261 C-16.38770014 245.45119366 -15.54628857 229.92953552 -14.52539062 214.40258789 C-14.37887948 212.14620775 -14.23257962 209.88981387 -14.08647156 207.63340759 C-13.69415012 201.58468705 -13.29874728 195.53617182 -12.90260124 189.4877007 C-12.48648944 183.12816531 -12.07285237 176.76846884 -11.65881348 170.40879822 C-10.92032242 159.07211788 -10.17935676 147.7356011 -9.43737227 136.39914905 C-8.76565051 126.13514698 -8.09649834 115.87097998 -7.42919922 105.60668945 C-6.56796917 92.35940809 -5.70429369 79.11228859 -4.83866882 65.8652935 C-4.50923208 60.82288871 -4.18076906 55.78042189 -3.85310364 50.73790169 C-3.46783843 44.81060716 -3.08023659 38.88346993 -2.69083595 32.95644569 C-2.54852108 30.78450088 -2.40701353 28.61250299 -2.2663784 26.44044876 C-2.07411872 23.47313503 -1.87891786 20.50602871 -1.6829834 17.53895569 C-1.62821414 16.68302907 -1.57344487 15.82710244 -1.51701593 14.94523865 C-1.18221462 9.93229643 -0.66903846 4.97969802 0 0 Z " fill="#000000" transform="translate(807,996)"/>
<path d="M0 0 C1.60420814 0.01867151 3.20847365 0.03289658 4.8127594 0.0428772 C9.01797318 0.08090551 13.21968504 0.17898196 17.42352295 0.28991699 C21.72001772 0.3925605 26.01708344 0.43795856 30.31445312 0.48828125 C38.73344073 0.5952554 47.14931102 0.76974354 55.56640625 0.9765625 C54.8669943 13.30882364 53.42606334 25.53579068 51.99023438 37.79931641 C51.72544497 40.08054665 51.46092081 42.3618077 51.19664001 44.64309692 C50.48258907 50.79970194 49.76465977 56.95584883 49.04585838 63.11190081 C48.29301491 69.56399093 47.54329092 76.01644365 46.79309082 82.46884155 C45.45387659 93.98264971 44.11161199 105.49609981 42.76807576 117.00940435 C41.55016465 127.4468699 40.3352528 137.88468097 39.12255859 148.32275391 C37.56132644 161.76078769 35.9974148 175.1985063 34.43125916 188.63596725 C33.83380421 193.76256428 33.23740814 198.88928285 32.64186096 204.01610184 C31.94165979 210.04271757 31.23887129 216.06902601 30.53405952 222.09510422 C30.27554992 224.30898247 30.01794209 226.52296623 29.7612896 228.73706055 C29.41161215 231.75237559 29.05870693 234.76729555 28.70495605 237.78213501 C28.60349541 238.66363397 28.50203477 239.54513294 28.39749956 240.45334399 C28.30207353 241.26082217 28.2066475 242.06830035 28.10832977 242.90024757 C28.02723197 243.59590061 27.94613418 244.29155364 27.86257887 245.00828707 C27.55965567 247.02142484 27.06016054 249.00154533 26.56640625 250.9765625 C2.47640625 250.9765625 -21.61359375 250.9765625 -46.43359375 250.9765625 C-44.13634855 230.30135573 -44.13634855 230.30135573 -42.73779297 220.8671875 C-42.58144379 219.79487885 -42.4250946 218.72257019 -42.26400757 217.61776733 C-41.75825169 214.15361315 -41.24826425 210.69009664 -40.73828125 207.2265625 C-40.38210655 204.79089806 -40.02624669 202.35518757 -39.67068481 199.91943359 C-38.74282214 193.56769058 -37.81155263 187.21645241 -36.87927246 180.86535645 C-35.37957135 170.64589587 -33.88433241 160.42578303 -32.39062881 150.20544434 C-31.86905065 146.64099043 -31.345507 143.07682916 -30.82174683 139.51269531 C-30.50463795 137.34701425 -30.18758755 135.18132462 -29.87060547 133.015625 C-29.72413574 132.02251312 -29.57766602 131.02940125 -29.42675781 130.00619507 C-29.29502167 129.10390167 -29.16328552 128.20160828 -29.02755737 127.27197266 C-28.91216551 126.48601715 -28.79677364 125.70006165 -28.67788506 124.89028931 C-28.39138554 122.96745492 -28.39138554 122.96745492 -28.43359375 120.9765625 C-29.12582031 122.02070312 -29.81804687 123.06484375 -30.53125 124.140625 C-39.36476801 137.44076989 -48.35804282 150.62905988 -57.37011719 163.80859375 C-59.28793473 166.61402032 -61.20452915 169.42027988 -63.12109375 172.2265625 C-63.67772705 173.03963867 -64.23436035 173.85271484 -64.80786133 174.69042969 C-65.36884521 175.51188477 -65.9298291 176.33333984 -66.5078125 177.1796875 C-67.13252441 178.04029785 -67.75723633 178.9009082 -68.40087891 179.78759766 C-70.07767331 182.4181872 -71.24369217 184.77280221 -72.46240234 187.61474609 C-74.97013603 192.93065061 -77.49598297 197.59171576 -82.43359375 200.9765625 C-91.74209581 203.75921017 -101.94260591 202.76068406 -111.53485107 202.21252441 C-115.13330104 202.02669905 -118.73405037 201.94583892 -122.3359375 201.85546875 C-129.37409393 201.66372359 -136.40292865 201.35757659 -143.43359375 200.9765625 C-143.63831802 200.46990555 -143.8430423 199.9632486 -144.05397034 199.4412384 C-146.27816006 193.93687942 -148.50265606 188.43264427 -150.72729492 182.9284668 C-151.54637667 180.90180292 -152.36539191 178.87511215 -153.18432617 176.84838867 C-161.25118947 156.88453345 -169.34142763 136.93017139 -177.43359375 116.9765625 C-177.53997854 117.59517812 -177.64636333 118.21379374 -177.75597191 118.85115528 C-180.35143084 133.9432411 -182.94747135 149.03522675 -185.5441494 164.12710285 C-186.79989797 171.42558832 -188.05545381 178.72410685 -189.31054688 186.02270508 C-190.40521398 192.38839373 -191.50025194 198.75401847 -192.5957247 205.11956853 C-193.17509026 208.48620953 -193.75427725 211.85288103 -194.33301926 215.21962929 C-194.98112964 218.98935816 -195.62989539 222.75897371 -196.27880859 226.52856445 C-196.46798355 227.62980652 -196.65715851 228.73104858 -196.85206604 229.86566162 C-197.37536807 232.90331556 -197.90413649 235.93997633 -198.43359375 238.9765625 C-198.70235762 240.55109223 -198.70235762 240.55109223 -198.97655106 242.15743065 C-199.15119259 243.15885912 -199.32583412 244.16028759 -199.50576782 245.19206238 C-199.66034769 246.08907458 -199.81492756 246.98608679 -199.97419167 247.91028118 C-200.43359375 249.9765625 -200.43359375 249.9765625 -201.43359375 250.9765625 C-203.64303007 251.04113495 -205.85459596 251.03337199 -208.06469727 250.99829102 C-208.7573468 250.98868347 -209.44999634 250.97907593 -210.16363525 250.96917725 C-212.46335674 250.93607778 -214.76289466 250.89578762 -217.0625 250.85546875 C-218.65290165 250.83117831 -220.24331018 250.80733422 -221.83372498 250.78392029 C-226.02761646 250.72097221 -230.22138681 250.65193619 -234.41516113 250.58166504 C-238.69143133 250.51107816 -242.96778767 250.44620356 -247.24414062 250.38085938 C-255.64072036 250.25170891 -264.03718077 250.11613183 -272.43359375 249.9765625 C-271.86391985 241.10167777 -270.33786135 232.50141821 -268.62963867 223.78491211 C-268.33995932 222.28550937 -268.05075265 220.78601525 -267.76197815 219.28643799 C-266.9816285 215.24164858 -266.19454434 211.19819717 -265.4060533 207.15498805 C-264.57682097 202.89737046 -263.75343797 198.63862145 -262.92927551 194.38002014 C-261.54337685 187.22341051 -260.15331426 180.0676199 -258.76049805 172.91235352 C-257.15909429 164.68537153 -255.56314453 156.45734716 -253.97041625 148.2286815 C-252.26433749 139.41462035 -250.55445304 130.60130064 -248.84336305 121.78821111 C-248.3556922 119.27518707 -247.86868633 116.76203494 -247.3818264 114.24885368 C-246.61016072 110.2666085 -245.83589303 106.28487695 -245.0597744 102.30349731 C-244.77842366 100.85829641 -244.49785655 99.41294265 -244.21821976 97.96740913 C-242.14486877 87.25405242 -239.80226353 76.63557653 -237.43359375 65.9765625 C-222.25359375 65.9765625 -207.07359375 65.9765625 -191.43359375 65.9765625 C-191.10359375 63.0065625 -190.77359375 60.0365625 -190.43359375 56.9765625 C-189.93859375 55.9865625 -189.93859375 55.9865625 -189.43359375 54.9765625 C-190.06225342 54.98179932 -190.69091309 54.98703613 -191.33862305 54.99243164 C-196.39533846 55.02897061 -201.44736196 55.02540582 -206.50390625 54.96484375 C-209.8918624 54.93354256 -212.98949139 55.0445301 -216.36328125 55.45703125 C-220.12993416 55.7810949 -222.02222771 55.66419596 -225.43359375 53.9765625 C-230.35755705 49.02606287 -233.87987519 42.88445286 -237.53320312 36.98193359 C-240.84036472 31.75182578 -244.43547347 26.72335386 -247.99609375 21.6640625 C-249.31087861 19.77281826 -250.62473071 17.88092511 -251.9375 15.98828125 C-254.05252849 12.93932925 -256.20120748 9.92364667 -258.3984375 6.93359375 C-260.43359375 3.9765625 -260.43359375 3.9765625 -260.43359375 1.9765625 C-224.79359375 1.9765625 -189.15359375 1.9765625 -152.43359375 1.9765625 C-132.62409784 50.91767005 -132.62409784 50.91767005 -123.02697754 74.72698975 C-121.95949999 77.37499153 -120.89164668 80.02284173 -119.82380867 82.67069817 C-109.37166413 108.58906022 -109.37166413 108.58906022 -104.43359375 120.9765625 C-95.6379982 109.99615435 -87.30119287 98.73231444 -79.10253906 87.30273438 C-76.40591743 83.54418977 -73.70236311 79.7906649 -70.99609375 76.0390625 C-70.46266357 75.29954346 -69.9292334 74.56002441 -69.37963867 73.7980957 C-64.84920957 67.52879628 -60.26115506 61.30295877 -55.66430664 55.08227539 C-51.17978225 49.00700936 -46.75162241 42.89293966 -42.34130859 36.76367188 C-37.73380553 30.36958599 -33.06267444 24.02358239 -28.36523438 17.6953125 C-27.82318359 16.963125 -27.28113281 16.2309375 -26.72265625 15.4765625 C-26.20132614 14.79596771 -25.67999603 14.11537292 -25.14286804 13.41415405 C-23.37607715 11.02760488 -23.37607715 11.02760488 -22.15888977 8.38394165 C-17.01385 -1.24665651 -9.69208722 -0.331664 0 0 Z " fill="#000000" transform="translate(643.43359375,704.0234375)"/>
<path d="M0 0 C57.42 0 114.84 0 174 0 C174 0.66 174 1.32 174 2 C177.96 2 181.92 2 186 2 C186 2.66 186 3.32 186 4 C187.98 4 189.96 4 192 4 C192 4.66 192 5.32 192 6 C193.32 6 194.64 6 196 6 C196 6.66 196 7.32 196 8 C197.32 8 198.64 8 200 8 C200 8.66 200 9.32 200 10 C201.32 10 202.64 10 204 10 C204 10.66 204 11.32 204 12 C205.32 12 206.64 12 208 12 C208 12.66 208 13.32 208 14 C208.66 14 209.32 14 210 14 C210 14.66 210 15.32 210 16 C210.66 16 211.32 16 212 16 C212 16.66 212 17.32 212 18 C212.66 18 213.32 18 214 18 C214 18.66 214 19.32 214 20 C214.66 20 215.32 20 216 20 C216 20.66 216 21.32 216 22 C216.66 22 217.32 22 218 22 C218 22.66 218 23.32 218 24 C218.66 24 219.32 24 220 24 C220 25.32 220 26.64 220 28 C220.66 28 221.32 28 222 28 C222 29.32 222 30.64 222 32 C222.66 32 223.32 32 224 32 C224 33.32 224 34.64 224 36 C224.66 36 225.32 36 226 36 C226 37.32 226 38.64 226 40 C226.66 40 227.32 40 228 40 C228 42.64 228 45.28 228 48 C228.66 48 229.32 48 230 48 C230 49.98 230 51.96 230 54 C230.66 54 231.32 54 232 54 C232 64.56 232 75.12 232 86 C231.34 86 230.68 86 230 86 C230 89.3 230 92.6 230 96 C229.34 96 228.68 96 228 96 C228 97.32 228 98.64 228 100 C227.34 100 226.68 100 226 100 C226 101.98 226 103.96 226 106 C225.34 106 224.68 106 224 106 C224 107.32 224 108.64 224 110 C223.34 110 222.68 110 222 110 C222 110.66 222 111.32 222 112 C221.34 112 220.68 112 220 112 C220 112.66 220 113.32 220 114 C219.34 114 218.68 114 218 114 C218 114.66 218 115.32 218 116 C217.34 116 216.68 116 216 116 C216 116.66 216 117.32 216 118 C215.34 118 214.68 118 214 118 C214 118.66 214 119.32 214 120 C213.34 120 212.68 120 212 120 C212 121.32 212 122.64 212 124 C212.66 124 213.32 124 214 124 C214 124.66 214 125.32 214 126 C215.32 126 216.64 126 218 126 C218 126.66 218 127.32 218 128 C219.32 128 220.64 128 222 128 C222 128.66 222 129.32 222 130 C222.66 130 223.32 130 224 130 C224 130.66 224 131.32 224 132 C224.66 132 225.32 132 226 132 C226 132.66 226 133.32 226 134 C226.66 134 227.32 134 228 134 C228 134.66 228 135.32 228 136 C228.66 136 229.32 136 230 136 C230 137.32 230 138.64 230 140 C230.66 140 231.32 140 232 140 C232 141.32 232 142.64 232 144 C232.66 144 233.32 144 234 144 C234 145.32 234 146.64 234 148 C234.66 148 235.32 148 236 148 C236 149.32 236 150.64 236 152 C236.66 152 237.32 152 238 152 C238 153.98 238 155.96 238 158 C238.66 158 239.32 158 240 158 C240 160.64 240 163.28 240 166 C240.66 166 241.32 166 242 166 C242 179.2 242 192.4 242 206 C241.34 206 240.68 206 240 206 C240 208.64 240 211.28 240 214 C239.34 214 238.68 214 238 214 C238 215.98 238 217.96 238 220 C237.34 220 236.68 220 236 220 C236 221.32 236 222.64 236 224 C235.34 224 234.68 224 234 224 C234 225.32 234 226.64 234 228 C233.34 228 232.68 228 232 228 C232 229.32 232 230.64 232 232 C231.34 232 230.68 232 230 232 C230 233.32 230 234.64 230 236 C229.34 236 228.68 236 228 236 C228 236.66 228 237.32 228 238 C227.34 238 226.68 238 226 238 C226 238.66 226 239.32 226 240 C225.34 240 224.68 240 224 240 C224 240.66 224 241.32 224 242 C223.34 242 222.68 242 222 242 C222 242.66 222 243.32 222 244 C221.34 244 220.68 244 220 244 C220 244.66 220 245.32 220 246 C219.34 246 218.68 246 218 246 C218 246.66 218 247.32 218 248 C217.34 248 216.68 248 216 248 C216 248.66 216 249.32 216 250 C214.68 250 213.36 250 212 250 C212 250.66 212 251.32 212 252 C211.34 252 210.68 252 210 252 C210 252.66 210 253.32 210 254 C208.68 254 207.36 254 206 254 C206 254.66 206 255.32 206 256 C204.68 256 203.36 256 202 256 C202 256.66 202 257.32 202 258 C200.02 258 198.04 258 196 258 C196 258.66 196 259.32 196 260 C194.02 260 192.04 260 190 260 C190 260.66 190 261.32 190 262 C188.02 262 186.04 262 184 262 C184 262.66 184 263.32 184 264 C125.26 264 66.52 264 6 264 C6 229.68 6 195.36 6 160 C6.66 160 7.32 160 8 160 C8 129.64 8 99.28 8 68 C27.8 68 47.6 68 68 68 C68 63.38 68 58.76 68 54 C55.46 54 42.92 54 30 54 C30 53.34 30 52.68 30 52 C29.34 52 28.68 52 28 52 C28 50.68 28 49.36 28 48 C27.34 48 26.68 48 26 48 C26 47.34 26 46.68 26 46 C25.34 46 24.68 46 24 46 C24 44.68 24 43.36 24 42 C23.34 42 22.68 42 22 42 C22 41.34 22 40.68 22 40 C21.34 40 20.68 40 20 40 C20 38.68 20 37.36 20 36 C19.34 36 18.68 36 18 36 C18 35.34 18 34.68 18 34 C17.34 34 16.68 34 16 34 C16 32.68 16 31.36 16 30 C15.34 30 14.68 30 14 30 C14 29.34 14 28.68 14 28 C13.34 28 12.68 28 12 28 C12 27.34 12 26.68 12 26 C11.34 26 10.68 26 10 26 C10 24.68 10 23.36 10 22 C9.34 22 8.68 22 8 22 C8 21.34 8 20.68 8 20 C7.34 20 6.68 20 6 20 C6 18.68 6 17.36 6 16 C5.34 16 4.68 16 4 16 C4 15.34 4 14.68 4 14 C3.34 14 2.68 14 2 14 C2 12.68 2 11.36 2 10 C1.34 10 0.68 10 0 10 C0 6.7 0 3.4 0 0 Z M78 64 C78 74.56 78 85.12 78 96 C101.1 96 124.2 96 148 96 C148 95.34 148 94.68 148 94 C149.98 94 151.96 94 154 94 C154 93.34 154 92.68 154 92 C154.66 92 155.32 92 156 92 C156 91.34 156 90.68 156 90 C156.66 90 157.32 90 158 90 C158 89.34 158 88.68 158 88 C158.66 88 159.32 88 160 88 C160 86.68 160 85.36 160 84 C160.66 84 161.32 84 162 84 C162 81.36 162 78.72 162 76 C161.34 76 160.68 76 160 76 C160 75.34 160 74.68 160 74 C159.34 74 158.68 74 158 74 C158 73.34 158 72.68 158 72 C157.34 72 156.68 72 156 72 C156 71.34 156 70.68 156 70 C155.34 70 154.68 70 154 70 C154 69.34 154 68.68 154 68 C153.34 68 152.68 68 152 68 C152 67.34 152 66.68 152 66 C150.02 66 148.04 66 146 66 C146 65.34 146 64.68 146 64 C124.88 64 103.76 64 82 64 C82 64.66 82 65.32 82 66 C80.68 65.34 79.36 64.68 78 64 Z M82 156 C82 156.66 82 157.32 82 158 C81.34 158 80.68 158 80 158 C80 158.66 80 159.32 80 160 C79.34 160 78.68 160 78 160 C78 171.22 78 182.44 78 194 C78.66 194 79.32 194 80 194 C80 194.66 80 195.32 80 196 C80.66 196 81.32 196 82 196 C82 196.66 82 197.32 82 198 C105.76 198 129.52 198 154 198 C154 197.34 154 196.68 154 196 C155.98 196 157.96 196 160 196 C160 195.34 160 194.68 160 194 C160.66 194 161.32 194 162 194 C162 193.34 162 192.68 162 192 C162.66 192 163.32 192 164 192 C164 191.34 164 190.68 164 190 C164.66 190 165.32 190 166 190 C166 189.34 166 188.68 166 188 C166.66 188 167.32 188 168 188 C168 187.34 168 186.68 168 186 C168.66 186 169.32 186 170 186 C170 180.06 170 174.12 170 168 C169.34 168 168.68 168 168 168 C168 167.34 168 166.68 168 166 C167.34 166 166.68 166 166 166 C166 165.34 166 164.68 166 164 C165.34 164 164.68 164 164 164 C164 163.34 164 162.68 164 162 C163.34 162 162.68 162 162 162 C162 161.34 162 160.68 162 160 C161.34 160 160.68 160 160 160 C160 159.34 160 158.68 160 158 C158.68 158 157.36 158 156 158 C156 157.34 156 156.68 156 156 C131.58 156 107.16 156 82 156 Z " fill="#000000" transform="translate(1115,995)"/>
<path d="M0 0 C65.34 0 130.68 0 198 0 C198 0.66 198 1.32 198 2 C200.64 2 203.28 2 206 2 C206 2.66 206 3.32 206 4 C208.64 4 211.28 4 214 4 C214 4.66 214 5.32 214 6 C215.98 6 217.96 6 220 6 C220 6.66 220 7.32 220 8 C221.32 8 222.64 8 224 8 C224 8.66 224 9.32 224 10 C225.32 10 226.64 10 228 10 C228 10.66 228 11.32 228 12 C229.32 12 230.64 12 232 12 C232 12.66 232 13.32 232 14 C233.32 14 234.64 14 236 14 C236 14.66 236 15.32 236 16 C236.66 16 237.32 16 238 16 C238 16.66 238 17.32 238 18 C238.66 18 239.32 18 240 18 C240 18.66 240 19.32 240 20 C240.66 20 241.32 20 242 20 C242 20.66 242 21.32 242 22 C242.66 22 243.32 22 244 22 C244 22.66 244 23.32 244 24 C244.66 24 245.32 24 246 24 C246 24.66 246 25.32 246 26 C246.66 26 247.32 26 248 26 C248 26.66 248 27.32 248 28 C248.66 28 249.32 28 250 28 C250 28.66 250 29.32 250 30 C250.66 30 251.32 30 252 30 C252 31.32 252 32.64 252 34 C252.66 34 253.32 34 254 34 C254 35.32 254 36.64 254 38 C254.66 38 255.32 38 256 38 C256 39.32 256 40.64 256 42 C256.66 42 257.32 42 258 42 C258 43.32 258 44.64 258 46 C258.66 46 259.32 46 260 46 C260 47.98 260 49.96 260 52 C260.66 52 261.32 52 262 52 C262 53.98 262 55.96 262 58 C262.66 58 263.32 58 264 58 C264 60.64 264 63.28 264 66 C264.66 66 265.32 66 266 66 C266 79.86 266 93.72 266 108 C265.34 108 264.68 108 264 108 C264 112.62 264 117.24 264 122 C263.34 122 262.68 122 262 122 C262 123.98 262 125.96 262 128 C261.34 128 260.68 128 260 128 C260 129.98 260 131.96 260 134 C259.34 134 258.68 134 258 134 C258 135.32 258 136.64 258 138 C257.34 138 256.68 138 256 138 C256 139.32 256 140.64 256 142 C255.34 142 254.68 142 254 142 C254 143.32 254 144.64 254 146 C253.34 146 252.68 146 252 146 C252 147.32 252 148.64 252 150 C251.34 150 250.68 150 250 150 C250 150.66 250 151.32 250 152 C249.34 152 248.68 152 248 152 C248 153.32 248 154.64 248 156 C247.34 156 246.68 156 246 156 C246 156.66 246 157.32 246 158 C245.34 158 244.68 158 244 158 C244 158.66 244 159.32 244 160 C243.34 160 242.68 160 242 160 C242 160.66 242 161.32 242 162 C241.34 162 240.68 162 240 162 C240 162.66 240 163.32 240 164 C239.34 164 238.68 164 238 164 C238 164.66 238 165.32 238 166 C237.34 166 236.68 166 236 166 C236 166.66 236 167.32 236 168 C234.68 168 233.36 168 232 168 C232 168.66 232 169.32 232 170 C231.34 170 230.68 170 230 170 C230 170.66 230 171.32 230 172 C228.68 172 227.36 172 226 172 C226 172.66 226 173.32 226 174 C225.34 174 224.68 174 224 174 C224 174.66 224 175.32 224 176 C222.68 176 221.36 176 220 176 C220 176.66 220 177.32 220 178 C218.68 178 217.36 178 216 178 C216 178.66 216 179.32 216 180 C214.02 180 212.04 180 210 180 C210 180.66 210 181.32 210 182 C209.34 182 208.68 182 208 182 C208 182.66 208 183.32 208 184 C208.66 184 209.32 184 210 184 C210 185.32 210 186.64 210 188 C210.66 188 211.32 188 212 188 C212 188.66 212 189.32 212 190 C212.66 190 213.32 190 214 190 C214 190.66 214 191.32 214 192 C214.66 192 215.32 192 216 192 C216 192.66 216 193.32 216 194 C216.66 194 217.32 194 218 194 C218 195.32 218 196.64 218 198 C218.66 198 219.32 198 220 198 C220 198.66 220 199.32 220 200 C220.66 200 221.32 200 222 200 C222 201.32 222 202.64 222 204 C222.66 204 223.32 204 224 204 C224 204.66 224 205.32 224 206 C224.66 206 225.32 206 226 206 C226 206.66 226 207.32 226 208 C226.66 208 227.32 208 228 208 C228 209.32 228 210.64 228 212 C228.66 212 229.32 212 230 212 C230 212.66 230 213.32 230 214 C230.66 214 231.32 214 232 214 C232 214.66 232 215.32 232 216 C232.66 216 233.32 216 234 216 C234 217.32 234 218.64 234 220 C234.66 220 235.32 220 236 220 C236 220.66 236 221.32 236 222 C236.66 222 237.32 222 238 222 C238 222.66 238 223.32 238 224 C238.66 224 239.32 224 240 224 C240 225.32 240 226.64 240 228 C240.66 228 241.32 228 242 228 C242 228.66 242 229.32 242 230 C242.66 230 243.32 230 244 230 C244 230.66 244 231.32 244 232 C244.66 232 245.32 232 246 232 C246 233.32 246 234.64 246 236 C246.66 236 247.32 236 248 236 C248 236.66 248 237.32 248 238 C248.66 238 249.32 238 250 238 C250 239.32 250 240.64 250 242 C250.66 242 251.32 242 252 242 C252 242.66 252 243.32 252 244 C252.66 244 253.32 244 254 244 C254 245.32 254 246.64 254 248 C254.66 248 255.32 248 256 248 C256 248.66 256 249.32 256 250 C256.66 250 257.32 250 258 250 C258 250.66 258 251.32 258 252 C258.66 252 259.32 252 260 252 C260 253.32 260 254.64 260 256 C260.66 256 261.32 256 262 256 C262 256.66 262 257.32 262 258 C262.66 258 263.32 258 264 258 C264 259.32 264 260.64 264 262 C264.66 262 265.32 262 266 262 C266 262.66 266 263.32 266 264 C266.66 264 267.32 264 268 264 C268 264.66 268 265.32 268 266 C268.66 266 269.32 266 270 266 C270 267.32 270 268.64 270 270 C270.66 270 271.32 270 272 270 C272 270.66 272 271.32 272 272 C272.66 272 273.32 272 274 272 C274 273.32 274 274.64 274 276 C274.66 276 275.32 276 276 276 C276 276.66 276 277.32 276 278 C276.66 278 277.32 278 278 278 C278 278.66 278 279.32 278 280 C278.66 280 279.32 280 280 280 C280 281.32 280 282.64 280 284 C280.66 284 281.32 284 282 284 C282 284.66 282 285.32 282 286 C282.66 286 283.32 286 284 286 C284 286.66 284 287.32 284 288 C284.66 288 285.32 288 286 288 C286 288.66 286 289.32 286 290 C286.66 290 287.32 290 288 290 C288 291.32 288 292.64 288 294 C288.66 294 289.32 294 290 294 C290 294.66 290 295.32 290 296 C290.66 296 291.32 296 292 296 C292 297.32 292 298.64 292 300 C292.66 300 293.32 300 294 300 C294 300.66 294 301.32 294 302 C294.66 302 295.32 302 296 302 C296 302.66 296 303.32 296 304 C296.66 304 297.32 304 298 304 C298 305.32 298 306.64 298 308 C298.66 308 299.32 308 300 308 C300 308.66 300 309.32 300 310 C300.66 310 301.32 310 302 310 C302 310.66 302 311.32 302 312 C302.66 312 303.32 312 304 312 C304 312.66 304 313.32 304 314 C304.66 314 305.32 314 306 314 C306 315.32 306 316.64 306 318 C306.66 318 307.32 318 308 318 C308 318.66 308 319.32 308 320 C308.66 320 309.32 320 310 320 C310 321.32 310 322.64 310 324 C310.66 324 311.32 324 312 324 C312 324.66 312 325.32 312 326 C312.66 326 313.32 326 314 326 C314 326.66 314 327.32 314 328 C314.66 328 315.32 328 316 328 C316 328.66 316 329.32 316 330 C316.66 330 317.32 330 318 330 C318 331.32 318 332.64 318 334 C318.66 334 319.32 334 320 334 C320 334.66 320 335.32 320 336 C320.66 336 321.32 336 322 336 C322 336.66 322 337.32 322 338 C322.66 338 323.32 338 324 338 C324 340.64 324 343.28 324 346 C293.64 346 263.28 346 232 346 C232 344.68 232 343.36 232 342 C231.34 342 230.68 342 230 342 C230 341.34 230 340.68 230 340 C229.34 340 228.68 340 228 340 C228 338.68 228 337.36 228 336 C227.34 336 226.68 336 226 336 C226 335.34 226 334.68 226 334 C225.34 334 224.68 334 224 334 C224 333.34 224 332.68 224 332 C223.34 332 222.68 332 222 332 C222 330.68 222 329.36 222 328 C221.34 328 220.68 328 220 328 C220 327.34 220 326.68 220 326 C219.34 326 218.68 326 218 326 C218 324.68 218 323.36 218 322 C217.34 322 216.68 322 216 322 C216 321.34 216 320.68 216 320 C215.34 320 214.68 320 214 320 C214 319.34 214 318.68 214 318 C213.34 318 212.68 318 212 318 C212 316.68 212 315.36 212 314 C211.34 314 210.68 314 210 314 C210 313.34 210 312.68 210 312 C209.34 312 208.68 312 208 312 C208 310.68 208 309.36 208 308 C207.34 308 206.68 308 206 308 C206 307.34 206 306.68 206 306 C205.34 306 204.68 306 204 306 C204 304.68 204 303.36 204 302 C203.34 302 202.68 302 202 302 C202 301.34 202 300.68 202 300 C201.34 300 200.68 300 200 300 C200 298.68 200 297.36 200 296 C199.34 296 198.68 296 198 296 C198 295.34 198 294.68 198 294 C197.34 294 196.68 294 196 294 C196 293.34 196 292.68 196 292 C195.34 292 194.68 292 194 292 C194 290.68 194 289.36 194 288 C193.34 288 192.68 288 192 288 C192 287.34 192 286.68 192 286 C191.34 286 190.68 286 190 286 C190 284.68 190 283.36 190 282 C189.34 282 188.68 282 188 282 C188 281.34 188 280.68 188 280 C187.34 280 186.68 280 186 280 C186 278.68 186 277.36 186 276 C185.34 276 184.68 276 184 276 C184 275.34 184 274.68 184 274 C183.34 274 182.68 274 182 274 C182 273.34 182 272.68 182 272 C181.34 272 180.68 272 180 272 C180 270.68 180 269.36 180 268 C179.34 268 178.68 268 178 268 C178 267.34 178 266.68 178 266 C177.34 266 176.68 266 176 266 C176 264.68 176 263.36 176 262 C175.34 262 174.68 262 174 262 C174 261.34 174 260.68 174 260 C173.34 260 172.68 260 172 260 C172 258.68 172 257.36 172 256 C171.34 256 170.68 256 170 256 C170 255.34 170 254.68 170 254 C169.34 254 168.68 254 168 254 C168 253.34 168 252.68 168 252 C167.34 252 166.68 252 166 252 C166 250.68 166 249.36 166 248 C165.34 248 164.68 248 164 248 C164 247.34 164 246.68 164 246 C163.34 246 162.68 246 162 246 C162 244.68 162 243.36 162 242 C161.34 242 160.68 242 160 242 C160 241.34 160 240.68 160 240 C159.34 240 158.68 240 158 240 C158 238.68 158 237.36 158 236 C157.34 236 156.68 236 156 236 C156 235.34 156 234.68 156 234 C155.34 234 154.68 234 154 234 C154 232.68 154 231.36 154 230 C153.34 230 152.68 230 152 230 C152 229.34 152 228.68 152 228 C151.34 228 150.68 228 150 228 C150 227.34 150 226.68 150 226 C149.34 226 148.68 226 148 226 C148 224.68 148 223.36 148 222 C147.34 222 146.68 222 146 222 C146 220.68 146 219.36 146 218 C145.34 218 144.68 218 144 218 C144 217.34 144 216.68 144 216 C143.34 216 142.68 216 142 216 C142 215.34 142 214.68 142 214 C141.34 214 140.68 214 140 214 C140 212.68 140 211.36 140 210 C139.34 210 138.68 210 138 210 C138 209.34 138 208.68 138 208 C137.34 208 136.68 208 136 208 C136 206.68 136 205.36 136 204 C135.34 204 134.68 204 134 204 C134 203.34 134 202.68 134 202 C133.34 202 132.68 202 132 202 C132 201.34 132 200.68 132 200 C131.34 200 130.68 200 130 200 C130 198.68 130 197.36 130 196 C129.34 196 128.68 196 128 196 C128 195.34 128 194.68 128 194 C127.34 194 126.68 194 126 194 C126 192.68 126 191.36 126 190 C125.34 190 124.68 190 124 190 C124 189.34 124 188.68 124 188 C123.34 188 122.68 188 122 188 C122 186.68 122 185.36 122 184 C121.34 184 120.68 184 120 184 C120 183.34 120 182.68 120 182 C119.34 182 118.68 182 118 182 C118 180.68 118 179.36 118 178 C117.34 178 116.68 178 116 178 C116 177.34 116 176.68 116 176 C115.34 176 114.68 176 114 176 C114 175.34 114 174.68 114 174 C113.34 174 112.68 174 112 174 C112 172.68 112 171.36 112 170 C111.34 170 110.68 170 110 170 C110 169.34 110 168.68 110 168 C109.34 168 108.68 168 108 168 C108 166.68 108 165.36 108 164 C107.34 164 106.68 164 106 164 C106 154.76 106 145.52 106 136 C105.34 136 104.68 136 104 136 C104 132.04 104 128.08 104 124 C126.44 124 148.88 124 172 124 C172 123.34 172 122.68 172 122 C173.32 122 174.64 122 176 122 C176 121.34 176 120.68 176 120 C177.32 120 178.64 120 180 120 C180 119.34 180 118.68 180 118 C180.66 118 181.32 118 182 118 C182 117.34 182 116.68 182 116 C182.66 116 183.32 116 184 116 C184 115.34 184 114.68 184 114 C184.66 114 185.32 114 186 114 C186 113.34 186 112.68 186 112 C186.66 112 187.32 112 188 112 C188 111.34 188 110.68 188 110 C188.66 110 189.32 110 190 110 C190 108.68 190 107.36 190 106 C190.66 106 191.32 106 192 106 C192 104.02 192 102.04 192 100 C192.66 100 193.32 100 194 100 C194 93.4 194 86.8 194 80 C193.34 80 192.68 80 192 80 C192 78.68 192 77.36 192 76 C191.34 76 190.68 76 190 76 C190 75.34 190 74.68 190 74 C189.34 74 188.68 74 188 74 C188 73.34 188 72.68 188 72 C187.34 72 186.68 72 186 72 C186 71.34 186 70.68 186 70 C185.34 70 184.68 70 184 70 C184 69.34 184 68.68 184 68 C182.68 68 181.36 68 180 68 C180 67.34 180 66.68 180 66 C178.68 66 177.36 66 176 66 C176 65.34 176 64.68 176 64 C131.78 64 87.56 64 42 64 C42 62.68 42 61.36 42 60 C41.34 60 40.68 60 40 60 C40 58.68 40 57.36 40 56 C39.34 56 38.68 56 38 56 C38 55.34 38 54.68 38 54 C37.34 54 36.68 54 36 54 C36 53.34 36 52.68 36 52 C35.34 52 34.68 52 34 52 C34 51.34 34 50.68 34 50 C33.34 50 32.68 50 32 50 C32 48.68 32 47.36 32 46 C31.34 46 30.68 46 30 46 C30 45.34 30 44.68 30 44 C29.34 44 28.68 44 28 44 C28 43.34 28 42.68 28 42 C27.34 42 26.68 42 26 42 C26 41.34 26 40.68 26 40 C25.34 40 24.68 40 24 40 C24 38.68 24 37.36 24 36 C23.34 36 22.68 36 22 36 C22 35.34 22 34.68 22 34 C21.34 34 20.68 34 20 34 C20 32.68 20 31.36 20 30 C19.34 30 18.68 30 18 30 C18 29.34 18 28.68 18 28 C17.34 28 16.68 28 16 28 C16 27.34 16 26.68 16 26 C15.34 26 14.68 26 14 26 C14 25.34 14 24.68 14 24 C13.34 24 12.68 24 12 24 C12 22.68 12 21.36 12 20 C11.34 20 10.68 20 10 20 C10 19.34 10 18.68 10 18 C9.34 18 8.68 18 8 18 C8 17.34 8 16.68 8 16 C7.34 16 6.68 16 6 16 C6 14.68 6 13.36 6 12 C5.34 12 4.68 12 4 12 C4 11.34 4 10.68 4 10 C3.34 10 2.68 10 2 10 C2 9.34 2 8.68 2 8 C1.34 8 0.68 8 0 8 C0 5.36 0 2.72 0 0 Z " fill="#000000" transform="translate(263,995)"/>
<path d="M0 0 C23.1 0 46.2 0 70 0 C70 3.96 70 7.92 70 12 C69.34 12 68.68 12 68 12 C68 23.22 68 34.44 68 46 C67.34 46 66.68 46 66 46 C66 51.28 66 56.56 66 62 C65.34 62 64.68 62 64 62 C64 73.88 64 85.76 64 98 C63.34 98 62.68 98 62 98 C62 103.28 62 108.56 62 114 C61.34 114 60.68 114 60 114 C60 125.88 60 137.76 60 150 C59.34 150 58.68 150 58 150 C58 157.92 58 165.84 58 174 C58.66 174 59.32 174 60 174 C60 175.98 60 177.96 60 180 C60.66 180 61.32 180 62 180 C62 181.32 62 182.64 62 184 C62.66 184 63.32 184 64 184 C64 184.66 64 185.32 64 186 C64.66 186 65.32 186 66 186 C66 186.66 66 187.32 66 188 C66.66 188 67.32 188 68 188 C68 188.66 68 189.32 68 190 C68.66 190 69.32 190 70 190 C70 190.66 70 191.32 70 192 C71.32 192 72.64 192 74 192 C74 192.66 74 193.32 74 194 C75.32 194 76.64 194 78 194 C78 194.66 78 195.32 78 196 C79.98 196 81.96 196 84 196 C84 196.66 84 197.32 84 198 C95.88 198 107.76 198 120 198 C120 197.34 120 196.68 120 196 C122.64 196 125.28 196 128 196 C128 195.34 128 194.68 128 194 C129.32 194 130.64 194 132 194 C132 193.34 132 192.68 132 192 C133.32 192 134.64 192 136 192 C136 191.34 136 190.68 136 190 C136.66 190 137.32 190 138 190 C138 189.34 138 188.68 138 188 C138.66 188 139.32 188 140 188 C140 187.34 140 186.68 140 186 C140.66 186 141.32 186 142 186 C142 185.34 142 184.68 142 184 C142.66 184 143.32 184 144 184 C144 183.34 144 182.68 144 182 C144.66 182 145.32 182 146 182 C146 180.68 146 179.36 146 178 C146.66 178 147.32 178 148 178 C148 176.02 148 174.04 148 172 C148.66 172 149.32 172 150 172 C150 166.06 150 160.12 150 154 C150.66 154 151.32 154 152 154 C152 143.44 152 132.88 152 122 C152.66 122 153.32 122 154 122 C154 112.76 154 103.52 154 94 C154.66 94 155.32 94 156 94 C156 83.44 156 72.88 156 62 C156.66 62 157.32 62 158 62 C158 52.1 158 42.2 158 32 C158.66 32 159.32 32 160 32 C160 23.42 160 14.84 160 6 C160.66 6 161.32 6 162 6 C162 4.02 162 2.04 162 0 C185.1 0 208.2 0 232 0 C232 5.94 232 11.88 232 18 C231.34 18 230.68 18 230 18 C230 30.54 230 43.08 230 56 C229.34 56 228.68 56 228 56 C228 64.58 228 73.16 228 82 C227.34 82 226.68 82 226 82 C226 97.18 226 112.36 226 128 C225.34 128 224.68 128 224 128 C224 135.92 224 143.84 224 152 C223.34 152 222.68 152 222 152 C222 161.9 222 171.8 222 182 C221.34 182 220.68 182 220 182 C220 185.96 220 189.92 220 194 C219.34 194 218.68 194 218 194 C218 195.98 218 197.96 218 200 C217.34 200 216.68 200 216 200 C216 201.98 216 203.96 216 206 C215.34 206 214.68 206 214 206 C214 207.98 214 209.96 214 212 C213.34 212 212.68 212 212 212 C212 213.32 212 214.64 212 216 C211.34 216 210.68 216 210 216 C210 217.32 210 218.64 210 220 C209.34 220 208.68 220 208 220 C208 220.66 208 221.32 208 222 C207.34 222 206.68 222 206 222 C206 223.32 206 224.64 206 226 C205.34 226 204.68 226 204 226 C204 227.32 204 228.64 204 230 C203.34 230 202.68 230 202 230 C202 230.66 202 231.32 202 232 C201.34 232 200.68 232 200 232 C200 232.66 200 233.32 200 234 C199.34 234 198.68 234 198 234 C198 234.66 198 235.32 198 236 C197.34 236 196.68 236 196 236 C196 236.66 196 237.32 196 238 C195.34 238 194.68 238 194 238 C194 238.66 194 239.32 194 240 C193.34 240 192.68 240 192 240 C192 240.66 192 241.32 192 242 C191.34 242 190.68 242 190 242 C190 242.66 190 243.32 190 244 C189.34 244 188.68 244 188 244 C188 244.66 188 245.32 188 246 C186.68 246 185.36 246 184 246 C184 246.66 184 247.32 184 248 C183.34 248 182.68 248 182 248 C182 248.66 182 249.32 182 250 C180.68 250 179.36 250 178 250 C178 250.66 178 251.32 178 252 C176.68 252 175.36 252 174 252 C174 252.66 174 253.32 174 254 C172.68 254 171.36 254 170 254 C170 254.66 170 255.32 170 256 C168.68 256 167.36 256 166 256 C166 256.66 166 257.32 166 258 C164.02 258 162.04 258 160 258 C160 258.66 160 259.32 160 260 C157.36 260 154.72 260 152 260 C152 260.66 152 261.32 152 262 C149.36 262 146.72 262 144 262 C144 262.66 144 263.32 144 264 C112.98 264 81.96 264 50 264 C50 263.34 50 262.68 50 262 C47.36 262 44.72 262 42 262 C42 261.34 42 260.68 42 260 C40.02 260 38.04 260 36 260 C36 259.34 36 258.68 36 258 C34.68 258 33.36 258 32 258 C32 257.34 32 256.68 32 256 C30.02 256 28.04 256 26 256 C26 255.34 26 254.68 26 254 C24.68 254 23.36 254 22 254 C22 253.34 22 252.68 22 252 C21.34 252 20.68 252 20 252 C20 251.34 20 250.68 20 250 C18.68 250 17.36 250 16 250 C16 249.34 16 248.68 16 248 C15.34 248 14.68 248 14 248 C14 247.34 14 246.68 14 246 C12.68 246 11.36 246 10 246 C10 245.34 10 244.68 10 244 C9.34 244 8.68 244 8 244 C8 243.34 8 242.68 8 242 C7.34 242 6.68 242 6 242 C6 241.34 6 240.68 6 240 C5.34 240 4.68 240 4 240 C4 239.34 4 238.68 4 238 C3.34 238 2.68 238 2 238 C2 237.34 2 236.68 2 236 C1.34 236 0.68 236 0 236 C0 234.68 0 233.36 0 232 C-0.66 232 -1.32 232 -2 232 C-2 231.34 -2 230.68 -2 230 C-2.66 230 -3.32 230 -4 230 C-4 228.68 -4 227.36 -4 226 C-4.66 226 -5.32 226 -6 226 C-6 224.68 -6 223.36 -6 222 C-6.66 222 -7.32 222 -8 222 C-8 220.68 -8 219.36 -8 218 C-8.66 218 -9.32 218 -10 218 C-10 216.02 -10 214.04 -10 212 C-10.66 212 -11.32 212 -12 212 C-12 210.02 -12 208.04 -12 206 C-12.66 206 -13.32 206 -14 206 C-14 204.02 -14 202.04 -14 200 C-14.66 200 -15.32 200 -16 200 C-16 187.46 -16 174.92 -16 162 C-15.34 162 -14.68 162 -14 162 C-14 153.42 -14 144.84 -14 136 C-13.34 136 -12.68 136 -12 136 C-12 128.08 -12 120.16 -12 112 C-11.34 112 -10.68 112 -10 112 C-10 103.42 -10 94.84 -10 86 C-9.34 86 -8.68 86 -8 86 C-8 80.06 -8 74.12 -8 68 C-7.34 68 -6.68 68 -6 68 C-6 60.08 -6 52.16 -6 44 C-5.34 44 -4.68 44 -4 44 C-4 36.74 -4 29.48 -4 22 C-3.34 22 -2.68 22 -2 22 C-2 15.4 -2 8.8 -2 2 C-1.34 2 -0.68 2 0 2 C0 1.34 0 0.68 0 0 Z " fill="#000000" transform="translate(551,995)"/>
<path d="M0 0 C12.43760792 -0.17301155 12.43760792 -0.17301155 17.8125 0.5625 C22.06066619 1.12892216 25.77813544 0.69085056 30 0 C30 0.66 30 1.32 30 2 C34.62 2 39.24 2 44 2 C44 5.3 44 8.6 44 12 C43.34 12 42.68 12 42 12 C42 14.64 42 17.28 42 20 C41.34 20 40.68 20 40 20 C40 21.98 40 23.96 40 26 C39.34 26 38.68 26 38 26 C38 27.98 38 29.96 38 32 C37.34 32 36.68 32 36 32 C36 33.98 36 35.96 36 38 C35.34 38 34.68 38 34 38 C34 40.64 34 43.28 34 46 C33.34 46 32.68 46 32 46 C32 48.64 32 51.28 32 54 C31.34 54 30.68 54 30 54 C30 55.98 30 57.96 30 60 C29.34 60 28.68 60 28 60 C28 61.32 28 62.64 28 64 C-8.96 64 -45.92 64 -84 64 C-84 64.66 -84 65.32 -84 66 C-85.32 66 -86.64 66 -88 66 C-88 66.66 -88 67.32 -88 68 C-89.98 68 -91.96 68 -94 68 C-94 68.66 -94 69.32 -94 70 C-94.66 70 -95.32 70 -96 70 C-96 70.66 -96 71.32 -96 72 C-96.66 72 -97.32 72 -98 72 C-98 72.66 -98 73.32 -98 74 C-98.66 74 -99.32 74 -100 74 C-100 74.66 -100 75.32 -100 76 C-100.66 76 -101.32 76 -102 76 C-102 77.32 -102 78.64 -102 80 C-102.66 80 -103.32 80 -104 80 C-104 81.32 -104 82.64 -104 84 C-104.66 84 -105.32 84 -106 84 C-106 86.64 -106 89.28 -106 92 C-106.66 92 -107.32 92 -108 92 C-108 115.76 -108 139.52 -108 164 C-107.34 164 -106.68 164 -106 164 C-106 165.98 -106 167.96 -106 170 C-105.34 170 -104.68 170 -104 170 C-104 171.32 -104 172.64 -104 174 C-103.34 174 -102.68 174 -102 174 C-102 174.66 -102 175.32 -102 176 C-101.34 176 -100.68 176 -100 176 C-100 176.66 -100 177.32 -100 178 C-99.34 178 -98.68 178 -98 178 C-98 178.66 -98 179.32 -98 180 C-97.34 180 -96.68 180 -96 180 C-96 180.66 -96 181.32 -96 182 C-95.34 182 -94.68 182 -94 182 C-94 182.66 -94 183.32 -94 184 C-92.68 184 -91.36 184 -90 184 C-90 184.66 -90 185.32 -90 186 C-88.02 186 -86.04 186 -84 186 C-84 186.66 -84 187.32 -84 188 C-43.74 188 -3.48 188 38 188 C38 187.34 38 186.68 38 186 C39.32 186 40.64 186 42 186 C42 186.66 42 187.32 42 188 C42.66 188 43.32 188 44 188 C44 191.96 44 195.92 44 200 C43.34 200 42.68 200 42 200 C42 201.32 42 202.64 42 204 C41.34 204 40.68 204 40 204 C40 205.32 40 206.64 40 208 C39.34 208 38.68 208 38 208 C38 209.98 38 211.96 38 214 C37.34 214 36.68 214 36 214 C36 215.32 36 216.64 36 218 C35.34 218 34.68 218 34 218 C34 219.98 34 221.96 34 224 C33.34 224 32.68 224 32 224 C32 225.32 32 226.64 32 228 C31.34 228 30.68 228 30 228 C30 229.98 30 231.96 30 234 C29.34 234 28.68 234 28 234 C28 235.98 28 237.96 28 240 C27.34 240 26.68 240 26 240 C26 241.32 26 242.64 26 244 C25.34 244 24.68 244 24 244 C24 245.98 24 247.96 24 250 C23.34 250 22.68 250 22 250 C22 250.66 22 251.32 22 252 C-20.9 252 -63.8 252 -108 252 C-108 251.34 -108 250.68 -108 250 C-111.3 250 -114.6 250 -118 250 C-118 249.34 -118 248.68 -118 248 C-119.98 248 -121.96 248 -124 248 C-124 247.34 -124 246.68 -124 246 C-125.98 246 -127.96 246 -130 246 C-130 245.34 -130 244.68 -130 244 C-131.32 244 -132.64 244 -134 244 C-134 243.34 -134 242.68 -134 242 C-135.32 242 -136.64 242 -138 242 C-138 241.34 -138 240.68 -138 240 C-139.32 240 -140.64 240 -142 240 C-142 239.34 -142 238.68 -142 238 C-142.66 238 -143.32 238 -144 238 C-144 237.34 -144 236.68 -144 236 C-145.32 236 -146.64 236 -148 236 C-148 235.34 -148 234.68 -148 234 C-148.66 234 -149.32 234 -150 234 C-150 233.34 -150 232.68 -150 232 C-150.66 232 -151.32 232 -152 232 C-152 231.34 -152 230.68 -152 230 C-152.66 230 -153.32 230 -154 230 C-154 229.34 -154 228.68 -154 228 C-154.66 228 -155.32 228 -156 228 C-156 227.34 -156 226.68 -156 226 C-156.66 226 -157.32 226 -158 226 C-158 225.34 -158 224.68 -158 224 C-158.66 224 -159.32 224 -160 224 C-160 223.34 -160 222.68 -160 222 C-160.66 222 -161.32 222 -162 222 C-162 221.34 -162 220.68 -162 220 C-162.66 220 -163.32 220 -164 220 C-164 218.68 -164 217.36 -164 216 C-164.66 216 -165.32 216 -166 216 C-166 214.68 -166 213.36 -166 212 C-166.66 212 -167.32 212 -168 212 C-168 210.68 -168 209.36 -168 208 C-168.66 208 -169.32 208 -170 208 C-170 206.68 -170 205.36 -170 204 C-170.66 204 -171.32 204 -172 204 C-172 202.68 -172 201.36 -172 200 C-172.66 200 -173.32 200 -174 200 C-174 198.02 -174 196.04 -174 194 C-174.66 194 -175.32 194 -176 194 C-176 191.36 -176 188.72 -176 186 C-176.66 186 -177.32 186 -178 186 C-178 149.7 -178 113.4 -178 76 C-177.34 76 -176.68 76 -176 76 C-176 72.7 -176 69.4 -176 66 C-175.34 66 -174.68 66 -174 66 C-174 62.7 -174 59.4 -174 56 C-173.34 56 -172.68 56 -172 56 C-172 55.34 -172 54.68 -172 54 C-171.34 54 -170.68 54 -170 54 C-170 52.68 -170 51.36 -170 50 C-169.34 50 -168.68 50 -168 50 C-168 48.02 -168 46.04 -168 44 C-167.34 44 -166.68 44 -166 44 C-166 40.7 -166 37.4 -166 34 C-165.34 34 -164.68 34 -164 34 C-164 33.34 -164 32.68 -164 32 C-163.34 32 -162.68 32 -162 32 C-162 31.34 -162 30.68 -162 30 C-161.34 30 -160.68 30 -160 30 C-160 28.68 -160 27.36 -160 26 C-159.34 26 -158.68 26 -158 26 C-158 25.34 -158 24.68 -158 24 C-157.34 24 -156.68 24 -156 24 C-156 23.34 -156 22.68 -156 22 C-155.34 22 -154.68 22 -154 22 C-154 21.34 -154 20.68 -154 20 C-153.34 20 -152.68 20 -152 20 C-152 19.34 -152 18.68 -152 18 C-149.36 18 -146.72 18 -144 18 C-144 17.34 -144 16.68 -144 16 C-142.68 16 -141.36 16 -140 16 C-140 15.34 -140 14.68 -140 14 C-139.34 14 -138.68 14 -138 14 C-138 13.34 -138 12.68 -138 12 C-133.16710122 7.66820823 -126.73276032 6.14134967 -120.375 5.8125 C-119.59125 5.874375 -118.8075 5.93625 -118 6 C-118 5.34 -118 4.68 -118 4 C-115.36 4 -112.72 4 -110 4 C-110 3.34 -110 2.68 -110 2 C-73.7 2 -37.4 2 0 2 C0 1.34 0 0.68 0 0 Z " fill="#000000" transform="translate(1115,703)"/>
<path d="M0 0 C23.1 0 46.2 0 70 0 C70 5.94 70 11.88 70 18 C114.88 18 159.76 18 206 18 C206 21.3 206 24.6 206 28 C205.34 28 204.68 28 204 28 C204 29.32 204 30.64 204 32 C203.34 32 202.68 32 202 32 C202 33.98 202 35.96 202 38 C201.34 38 200.68 38 200 38 C200 39.32 200 40.64 200 42 C199.34 42 198.68 42 198 42 C198 43.98 198 45.96 198 48 C197.34 48 196.68 48 196 48 C196 49.98 196 51.96 196 54 C195.34 54 194.68 54 194 54 C194 55.98 194 57.96 194 60 C193.34 60 192.68 60 192 60 C192 61.32 192 62.64 192 64 C191.34 64 190.68 64 190 64 C190 65.98 190 67.96 190 70 C189.34 70 188.68 70 188 70 C188 71.98 188 73.96 188 76 C187.34 76 186.68 76 186 76 C186 77.32 186 78.64 186 80 C150.36 80 114.72 80 78 80 C78 85.94 78 91.88 78 98 C78.66 98 79.32 98 80 98 C80 99.32 80 100.64 80 102 C80.66 102 81.32 102 82 102 C82 103.32 82 104.64 82 106 C82.66 106 83.32 106 84 106 C84 106.66 84 107.32 84 108 C84.66 108 85.32 108 86 108 C86 108.66 86 109.32 86 110 C86.66 110 87.32 110 88 110 C88 110.66 88 111.32 88 112 C88.66 112 89.32 112 90 112 C90 112.66 90 113.32 90 114 C91.32 114 92.64 114 94 114 C94 114.66 94 115.32 94 116 C95.32 116 96.64 116 98 116 C98 116.66 98 117.32 98 118 C140.24 118 182.48 118 226 118 C226 124.6 226 131.2 226 138 C225.34 138 224.68 138 224 138 C224 141.96 224 145.92 224 150 C223.34 150 222.68 150 222 150 C222 155.94 222 161.88 222 168 C221.34 168 220.68 168 220 168 C220 173.28 220 178.56 220 184 C170.5 184 121 184 70 184 C70 183.34 70 182.68 70 182 C66.7 182 63.4 182 60 182 C60 181.34 60 180.68 60 180 C58.02 180 56.04 180 54 180 C54 179.34 54 178.68 54 178 C52.68 178 51.36 178 50 178 C50 177.34 50 176.68 50 176 C48.68 176 47.36 176 46 176 C46 175.34 46 174.68 46 174 C44.68 174 43.36 174 42 174 C42 173.34 42 172.68 42 172 C41.34 172 40.68 172 40 172 C40 171.34 40 170.68 40 170 C38.68 170 37.36 170 36 170 C36 169.34 36 168.68 36 168 C35.34 168 34.68 168 34 168 C34 167.34 34 166.68 34 166 C33.34 166 32.68 166 32 166 C32 165.34 32 164.68 32 164 C31.34 164 30.68 164 30 164 C30 163.34 30 162.68 30 162 C29.34 162 28.68 162 28 162 C28 161.34 28 160.68 28 160 C27.34 160 26.68 160 26 160 C26 159.34 26 158.68 26 158 C25.34 158 24.68 158 24 158 C24 157.34 24 156.68 24 156 C23.34 156 22.68 156 22 156 C22 154.68 22 153.36 22 152 C21.34 152 20.68 152 20 152 C20 151.34 20 150.68 20 150 C19.34 150 18.68 150 18 150 C18 148.68 18 147.36 18 146 C17.34 146 16.68 146 16 146 C16 144.68 16 143.36 16 142 C15.34 142 14.68 142 14 142 C14 140.02 14 138.04 14 136 C13.34 136 12.68 136 12 136 C12 134.68 12 133.36 12 132 C11.34 132 10.68 132 10 132 C10 129.36 10 126.72 10 124 C9.34 124 8.68 124 8 124 C8 120.04 8 116.08 8 112 C7.34 112 6.68 112 6 112 C6 104.74 6 97.48 6 90 C5.34 90 4.68 90 4 90 C4 79.44 4 68.88 4 58 C3.34 58 2.68 58 2 58 C2 50.74 2 43.48 2 36 C1.34 36 0.68 36 0 36 C0 24.12 0 12.24 0 0 Z " fill="#000000" transform="translate(1583,1075)"/>
<path d="M0 0 C4.96152153 -0.01257876 9.92303332 -0.02153533 14.88456726 -0.02746582 C16.56423606 -0.0299442 18.24390383 -0.03332788 19.92356873 -0.03771973 C35.30239018 -0.07685525 50.63491015 0.32024076 66 1 C66.02719556 3.37507855 66.04693247 5.74983964 66.0625 8.125 C66.07087891 8.79015625 66.07925781 9.4553125 66.08789062 10.140625 C66.10829836 14.30380235 65.69475174 17.83148955 65 22 C109.22 22 153.44 22 199 22 C197.59808792 26.20573624 196.26941124 29.70873573 194.3125 33.60546875 C193.78309814 34.6629834 193.25369629 35.72049805 192.70825195 36.81005859 C191.86266724 38.48189209 191.86266724 38.48189209 191 40.1875 C190.4227417 41.33557129 189.8454834 42.48364258 189.25073242 43.66650391 C184.58928126 52.90711885 179.81647604 62.08620882 174.9387207 71.21435547 C173.93219676 73.12897605 172.96735334 75.06529332 172 77 C135.37 77 98.74 77 61 77 C61 79.97 61 82.94 61 86 C60.01 95.9 59.02 105.8 58 116 C107.83 116 157.66 116 209 116 C205.62508812 128.37467689 205.62508812 128.37467689 204.02294922 132.69921875 C203.66602997 133.66972168 203.30911072 134.64022461 202.94137573 135.64013672 C202.56626862 136.6457666 202.1911615 137.65139648 201.8046875 138.6875 C201.41177521 139.75242676 201.01886292 140.81735352 200.61404419 141.91455078 C199.37205306 145.27799754 198.12371365 148.63904401 196.875 152 C195.62061841 155.39005159 194.36752056 158.78057573 193.11453247 162.17114258 C192.33772399 164.27165672 191.55982857 166.37176929 190.7807312 168.47143555 C190.25480881 169.88936401 190.25480881 169.88936401 189.71826172 171.3359375 C189.40976288 172.16657715 189.10126404 172.9972168 188.78341675 173.85302734 C188.16100959 175.55874931 187.57418447 177.27744658 187 179 C142.48012796 179.07476583 97.96583807 178.90084932 53.44736505 178.55461788 C45.40019739 178.49213717 37.35300839 178.43262502 29.30581737 178.37324238 C12.87052097 178.25190098 -3.56474797 178.12721247 -20 178 C-20.28473954 169.39787448 -19.19414345 160.98621369 -18.1640625 152.46459961 C-17.96656908 150.7983221 -17.76953971 149.13198953 -17.57293701 147.46560669 C-17.04046529 142.9636484 -16.50153999 138.46248393 -15.96141815 133.96143794 C-15.39709832 129.24936293 -14.83876478 124.53657873 -14.27978516 119.8238678 C-13.22152141 110.90946309 -12.15790619 101.99570548 -11.0923481 93.08217007 C-9.87901942 82.93029102 -8.67168683 72.77770169 -7.46484756 62.62504947 C-4.98321752 41.74923802 -2.4940908 20.87432615 0 0 Z " fill="#000000" transform="translate(717,776)"/>
<path d="M0 0 C7.5019498 -0.0198936 15.00388899 -0.03911469 22.50585938 -0.04882812 C27.09693562 -0.05480079 31.68799187 -0.06185897 36.27905273 -0.07543945 C39.98135916 -0.08632217 43.68364415 -0.09228825 47.38596535 -0.09487724 C48.79691721 -0.09672179 50.20786794 -0.10032371 51.61881065 -0.10573006 C53.59831976 -0.11301184 55.57785055 -0.11340867 57.55737305 -0.11352539 C58.68322311 -0.115746 59.80907318 -0.11796661 60.96903992 -0.12025452 C63.77173984 -0.00905631 66.26552116 0.41716103 69 1 C70.17968098 23.86258617 71.35345838 46.7254688 72.52036285 69.58871078 C73.06240967 80.20641971 73.60632945 90.82402628 74.15478516 101.44140625 C74.6332628 110.70419818 75.10809728 119.96716878 75.5787034 129.23036408 C75.82760644 134.12722312 76.07823387 139.0239791 76.33323669 143.9205246 C76.57407821 148.54625993 76.80998206 153.17222281 77.04238701 157.79838943 C77.1276884 159.48003974 77.21466699 161.16160613 77.30362129 162.84306717 C77.94027653 174.90446212 78.09428103 186.92243155 78 199 C78.65875594 198.99907821 79.31751188 198.99815641 79.99623013 198.99720669 C96.00267491 198.97515164 112.00911444 198.95858854 128.01557064 198.94818783 C135.75607282 198.94302483 143.49656487 198.93598207 151.23706055 198.92456055 C157.98127151 198.91461381 164.72547515 198.9081466 171.46969324 198.90591151 C175.04286866 198.90460438 178.6160231 198.90151842 182.18919182 198.89426994 C186.17162351 198.88625628 190.15403441 198.88600886 194.13647461 198.88647461 C195.32977386 198.88287933 196.52307312 198.87928406 197.75253296 198.87557983 C199.37011253 198.87764183 199.37011253 198.87764183 201.02037048 198.87974548 C201.96336471 198.87882369 202.90635893 198.8779019 203.87792873 198.87695217 C206 199 206 199 207 200 C207.18056143 201.38566924 207.29812952 202.77964067 207.38891602 204.17407227 C207.44890274 205.06332901 207.50888947 205.95258575 207.57069397 206.86878967 C207.63115402 207.84150314 207.69161407 208.81421661 207.75390625 209.81640625 C207.81907944 210.82025864 207.88425262 211.82411102 207.95140076 212.85838318 C208.08897326 214.99780781 208.22415604 217.1373872 208.35717773 219.27709961 C208.55841215 222.49708958 208.76982241 225.7162899 208.98242188 228.93554688 C209.11520926 231.02079357 209.24738799 233.10607913 209.37890625 235.19140625 C209.44139053 236.13375626 209.50387482 237.07610626 209.56825256 238.04701233 C210.07572302 246.40928204 210 254.56823414 210 263 C143.01 263 76.02 263 7 263 C5.85118366 242.32130596 5.85118366 242.32130596 5.65196228 235.098526 C5.62660654 234.25029516 5.6012508 233.40206432 5.57512671 232.52812952 C5.49307051 229.76368673 5.41434173 226.99916079 5.33569336 224.23461914 C5.2766227 222.21980747 5.21735677 220.20500151 5.15791321 218.19020081 C4.99861125 212.76766825 4.84238506 207.34505149 4.68703151 201.92240453 C4.58923289 198.51386617 4.49074868 195.10534832 4.39203072 191.69683647 C4.04591443 179.74563343 3.70231404 167.79436111 3.36108398 155.84301758 C3.04580303 144.80283182 2.72501941 133.76281543 2.4016065 122.72286516 C2.12195111 113.16799721 1.84627741 103.61301941 1.5735274 94.05795187 C1.41154956 88.3857373 1.24811405 82.71357538 1.08061028 77.04152107 C0.32363771 51.35386412 -0.21352597 25.69961585 0 0 Z " fill="#000000" transform="translate(1366,995)"/>
<path d="M0 0 C83.16 0 166.32 0 252 0 C252 3.96 252 7.92 252 12 C251.34 12 250.68 12 250 12 C250 13.98 250 15.96 250 18 C249.34 18 248.68 18 248 18 C248 20.64 248 23.28 248 26 C247.34 26 246.68 26 246 26 C246 28.64 246 31.28 246 34 C245.34 34 244.68 34 244 34 C244 36.64 244 39.28 244 42 C243.34 42 242.68 42 242 42 C242 43.98 242 45.96 242 48 C241.34 48 240.68 48 240 48 C240 50.64 240 53.28 240 56 C239.34 56 238.68 56 238 56 C238 58.64 238 61.28 238 64 C173.32 64 108.64 64 42 64 C42 63.34 42 62.68 42 62 C41.34 62 40.68 62 40 62 C40 61.34 40 60.68 40 60 C39.34 60 38.68 60 38 60 C38 58.68 38 57.36 38 56 C37.34 56 36.68 56 36 56 C36 55.34 36 54.68 36 54 C35.34 54 34.68 54 34 54 C34 53.34 34 52.68 34 52 C33.34 52 32.68 52 32 52 C32 50.68 32 49.36 32 48 C31.34 48 30.68 48 30 48 C30 47.34 30 46.68 30 46 C29.34 46 28.68 46 28 46 C28 45.34 28 44.68 28 44 C27.34 44 26.68 44 26 44 C26 42.68 26 41.36 26 40 C25.34 40 24.68 40 24 40 C24 39.34 24 38.68 24 38 C23.34 38 22.68 38 22 38 C22 37.34 22 36.68 22 36 C21.34 36 20.68 36 20 36 C20 34.68 20 33.36 20 32 C19.34 32 18.68 32 18 32 C18 31.34 18 30.68 18 30 C17.34 30 16.68 30 16 30 C16 28.68 16 27.36 16 26 C15.34 26 14.68 26 14 26 C14 25.34 14 24.68 14 24 C13.34 24 12.68 24 12 24 C12 23.34 12 22.68 12 22 C11.34 22 10.68 22 10 22 C10 20.68 10 19.36 10 18 C9.34 18 8.68 18 8 18 C8 17.34 8 16.68 8 16 C7.34 16 6.68 16 6 16 C6 15.34 6 14.68 6 14 C5.34 14 4.68 14 4 14 C4 12.68 4 11.36 4 10 C3.34 10 2.68 10 2 10 C2 9.34 2 8.68 2 8 C1.34 8 0.68 8 0 8 C0 5.36 0 2.72 0 0 Z " fill="#000000" transform="translate(1551,995)"/>
<path d="M0 0 C22.44 0 44.88 0 68 0 C68 5.28 68 10.56 68 16 C67.34 16 66.68 16 66 16 C66 23.92 66 31.84 66 40 C65.34 40 64.68 40 64 40 C64 43.96 64 47.92 64 52 C63.34 52 62.68 52 62 52 C62 53.98 62 55.96 62 58 C62.66 58 63.32 58 64 58 C64 60.64 64 63.28 64 66 C63.34 66 62.68 66 62 66 C62 74.58 62 83.16 62 92 C61.34 92 60.68 92 60 92 C60 96.62 60 101.24 60 106 C59.34 106 58.68 106 58 106 C58 112.6 58 119.2 58 126 C57.34 126 56.68 126 56 126 C56 131.94 56 137.88 56 144 C55.34 144 54.68 144 54 144 C54 150.6 54 157.2 54 164 C53.34 164 52.68 164 52 164 C52 169.94 52 175.88 52 182 C27.58 182 3.16 182 -22 182 C-22 176.72 -22 171.44 -22 166 C-21.34 166 -20.68 166 -20 166 C-20 159.4 -20 152.8 -20 146 C-19.34 146 -18.68 146 -18 146 C-18 142.04 -18 138.08 -18 134 C-17.34 134 -16.68 134 -16 134 C-16 128.06 -16 122.12 -16 116 C-15.34 116 -14.68 116 -14 116 C-14 111.38 -14 106.76 -14 102 C-13.34 102 -12.68 102 -12 102 C-12 96.72 -12 91.44 -12 86 C-11.34 86 -10.68 86 -10 86 C-10 80.06 -10 74.12 -10 68 C-9.34 68 -8.68 68 -8 68 C-8 62.06 -8 56.12 -8 50 C-7.34 50 -6.68 50 -6 50 C-6 44.72 -6 39.44 -6 34 C-5.34 34 -4.68 34 -4 34 C-4 29.38 -4 24.76 -4 20 C-3.34 20 -2.68 20 -2 20 C-2.02320313 18.89140625 -2.04640625 17.7828125 -2.0703125 16.640625 C-2.08907577 15.17709008 -2.10727537 13.71354786 -2.125 12.25 C-2.15013672 11.15558594 -2.15013672 11.15558594 -2.17578125 10.0390625 C-2.21372922 5.86478602 -1.91514727 3.83029454 0 0 Z " fill="#000000" transform="translate(295,1077)"/>
<path d="M0 0 C78.54 0 157.08 0 238 0 C236.87503005 6.74981967 236.87503005 6.74981967 235.40527344 10.16259766 C235.08113464 10.92424225 234.75699585 11.68588684 234.42303467 12.47061157 C234.07202698 13.27695038 233.72101929 14.08328918 233.359375 14.9140625 C232.99531555 15.76495453 232.6312561 16.61584656 232.25616455 17.49252319 C231.09361925 20.20604984 229.92207278 22.91557693 228.75 25.625 C227.977245 27.42291091 227.20510367 29.22108571 226.43359375 31.01953125 C225.31144162 33.63514027 224.18854081 36.25040013 223.06188965 38.86407471 C220.61147955 44.55124544 218.21700123 50.25725195 215.88378906 55.99365234 C215 58 215 58 214 59 C212.21572813 59.09636838 210.42760347 59.12187453 208.64073181 59.12025452 C207.47820389 59.12162918 206.31567596 59.12300385 205.11791992 59.12442017 C203.83111328 59.12082489 202.54430664 59.11722961 201.21850586 59.11352539 C199.85876976 59.11324352 198.4990335 59.11340125 197.13929749 59.1139679 C193.43698222 59.11425587 189.73469908 59.10835912 186.03239131 59.10139394 C182.16731219 59.09516043 178.30223242 59.0945566 174.43714905 59.09336853 C167.11315318 59.09025521 159.78917216 59.0820418 152.46518284 59.07201904 C144.12916552 59.06085794 135.79314751 59.05534746 127.45712459 59.05032361 C110.30474112 59.03985919 93.15237213 59.02225973 76 59 C76 57.35 76 55.7 76 54 C75.02305176 54.45741577 75.02305176 54.45741577 74.02636719 54.92407227 C62.2743533 59.10212367 43.83959993 60.24783168 32 56 C24.31573254 51.10771529 20.86111873 41.14817943 17.58052063 33.0652771 C14.63662947 25.81651946 10.60557446 19.40918941 6.4375 12.8125 C5.17830893 10.76133255 3.92623476 8.70576714 2.68359375 6.64453125 C2.16337646 5.79221924 1.64315918 4.93990723 1.10717773 4.06176758 C0 2 0 2 0 0 Z " fill="#000000" transform="translate(706,706)"/>
</svg>