<svg width="14" height="14" viewBox="0 0 14 14" fill="none" xmlns="http://www.w3.org/2000/svg">
<g clip-path="url(#clip0_0_96)">
<path d="M7 0.21875C3.25473 0.21875 0.21875 3.25473 0.21875 7C0.21875 10.7453 3.25473 13.7812 7 13.7812C10.7453 13.7812 13.7812 10.7453 13.7812 7C13.7812 3.25473 10.7453 0.21875 7 0.21875ZM9.25012 9.99687C9.14348 10.103 9.03164 10.2143 8.94086 10.3053C8.8591 10.3873 8.80141 10.4885 8.77215 10.5982C8.73086 10.7529 8.6975 10.9093 8.64172 11.0595L8.16621 12.3405C7.78996 12.4225 7.40059 12.4688 7 12.4688V11.7201C7.04621 11.375 6.79109 10.7286 6.38121 10.3187C6.21715 10.1546 6.125 9.93207 6.125 9.69992V8.82465C6.125 8.50637 5.95355 8.21379 5.67492 8.05984C5.28199 7.84246 4.72309 7.53867 4.34027 7.3459C4.02637 7.18785 3.73598 6.9866 3.47484 6.75117L3.45297 6.73148C3.26623 6.56292 3.10043 6.37252 2.95914 6.16438C2.70266 5.78785 2.28484 5.16852 2.01332 4.76602C2.57305 3.52188 3.58176 2.52273 4.8352 1.97996L5.49172 2.30836C5.78266 2.45383 6.125 2.24246 6.125 1.91707V1.60809C6.34348 1.57281 6.56578 1.55039 6.79191 1.54191L7.56574 2.31574C7.73664 2.48664 7.73664 2.76363 7.56574 2.93453L7.4375 3.0625L7.15477 3.34523C7.06945 3.43055 7.06945 3.56918 7.15477 3.65449L7.28301 3.78273C7.36832 3.86805 7.36832 4.00668 7.28301 4.09199L7.06426 4.31074C7.02319 4.35173 6.96752 4.37475 6.90949 4.37473H6.66367C6.6068 4.37473 6.55211 4.39687 6.51109 4.4368L6.23984 4.70066C6.20659 4.73304 6.18449 4.77515 6.17673 4.8209C6.16896 4.86666 6.17593 4.9137 6.19664 4.95523L6.62293 5.80809C6.69566 5.95355 6.58984 6.12473 6.42742 6.12473H6.2732C6.22043 6.12473 6.16957 6.10559 6.12992 6.07113L5.87617 5.85074C5.81875 5.80093 5.74935 5.76692 5.6748 5.75205C5.60025 5.73719 5.52311 5.74199 5.45098 5.76598L4.59867 6.05008C4.5336 6.07177 4.47701 6.1134 4.43691 6.16905C4.39682 6.2247 4.37525 6.29156 4.37527 6.36016C4.37527 6.48402 4.44527 6.59695 4.55602 6.65246L4.85898 6.80395C5.11629 6.93273 5.40012 6.99973 5.68777 6.99973C5.97543 6.99973 6.30547 7.74594 6.56277 7.87473H8.38797C8.62012 7.87473 8.84242 7.96687 9.00676 8.13094L9.38109 8.50527C9.53748 8.66172 9.62531 8.87388 9.62527 9.09508C9.62522 9.26269 9.59205 9.42865 9.52767 9.58341C9.46328 9.73816 9.36896 9.87868 9.25012 9.99687ZM11.6211 7.49902C11.4628 7.45937 11.3247 7.3623 11.2342 7.22641L10.7425 6.48895C10.6706 6.3812 10.6322 6.25455 10.6322 6.125C10.6322 5.99545 10.6706 5.8688 10.7425 5.76105L11.2782 4.9577C11.3416 4.86281 11.4286 4.7857 11.5309 4.73484L11.8858 4.55738C12.2555 5.29348 12.4688 6.12145 12.4688 7C12.4688 7.23707 12.4485 7.46922 12.419 7.69836L11.6211 7.49902Z" fill="#151515"/>
</g>
<defs>
<clipPath id="clip0_0_96">
<rect width="14" height="14" fill="white"/>
</clipPath>
</defs>
</svg>
