<svg width="20" height="20" viewBox="0 0 20 20" fill="none" xmlns="http://www.w3.org/2000/svg">
<path d="M14.1992 9.20703C14.2852 9.24219 14.3633 9.28125 14.4453 9.31641C15.5859 9.86719 16.4219 10.6914 16.8594 11.7148C17.4727 13.1406 17.5312 15.457 15.6758 17.3086C14.2617 18.7227 12.5391 19.3594 10.1055 19.3789H10.0938C7.35156 19.3594 5.24609 18.4375 3.82812 16.6367C2.56641 15.0352 1.91797 12.8047 1.89453 10.0117V10V9.99219C1.91406 7.19922 2.5625 4.96875 3.82422 3.36719C5.24219 1.56641 7.35156 0.644531 10.0938 0.625H10.1055C12.8516 0.644531 14.9844 1.5625 16.4453 3.35547C17.1641 4.24219 17.6953 5.30859 18.0312 6.54688L16.4531 6.96875C16.1758 5.96094 15.7578 5.10156 15.1953 4.41406C14.0547 3.01562 12.3438 2.29688 10.0977 2.28125C7.87109 2.30078 6.1875 3.01563 5.08984 4.40625C4.06641 5.70703 3.53516 7.58984 3.51562 10C3.53516 12.4102 4.06641 14.293 5.08984 15.5977C6.18359 16.9883 7.87109 17.7031 10.0977 17.7227C12.1055 17.707 13.4336 17.2305 14.5391 16.125C15.8008 14.8672 15.7773 13.3203 15.375 12.3789C15.1367 11.8242 14.707 11.3633 14.1289 11.0156C13.9844 12.0664 13.668 12.9023 13.1641 13.5469C12.4961 14.3984 11.5469 14.8594 10.3242 14.9258C9.40234 14.9766 8.51562 14.7539 7.82812 14.3008C7.01562 13.7617 6.53906 12.9414 6.48828 11.9844C6.39062 10.0977 7.88281 8.74219 10.207 8.60938C11.0312 8.5625 11.8047 8.59766 12.5195 8.71875C12.4258 8.14062 12.2344 7.67969 11.9492 7.34375C11.5586 6.88672 10.9492 6.65234 10.1445 6.64844H10.1172C9.46875 6.64844 8.59375 6.82812 8.03516 7.67578L6.69141 6.75391C7.44141 5.61719 8.65625 4.99219 10.1211 4.99219H10.1523C12.5977 5.00781 14.0547 6.53516 14.2031 9.19922L14.1953 9.20703H14.1992ZM8.10547 11.8945C8.15625 12.875 9.21484 13.332 10.2383 13.2734C11.2383 13.2188 12.3711 12.8281 12.5625 10.4141C12.0469 10.3008 11.4766 10.2422 10.8672 10.2422C10.6797 10.2422 10.4922 10.2461 10.3047 10.2578C8.62891 10.3516 8.07031 11.1641 8.10938 11.8906L8.10547 11.8945Z" fill="white"/>
</svg>
