<svg width="20" height="20" viewBox="0 0 20 20" fill="none" xmlns="http://www.w3.org/2000/svg">
<path d="M18.7501 8.19961C17.0303 8.20372 15.3528 7.6674 13.9544 6.66641V13.6477C13.9539 14.9407 13.5587 16.2027 12.8216 17.265C12.0845 18.3274 11.0406 19.1393 9.82958 19.5924C8.61855 20.0455 7.29806 20.118 6.04469 19.8003C4.79132 19.4826 3.66481 18.7899 2.81578 17.8147C1.96676 16.8395 1.43569 15.6283 1.29359 14.3431C1.15149 13.058 1.40514 11.76 2.02061 10.6229C2.63608 9.48578 3.58404 8.56366 4.73773 7.97983C5.89142 7.39601 7.19586 7.17832 8.47662 7.35586V10.8672C7.89054 10.6828 7.2612 10.6884 6.67847 10.8831C6.09574 11.0777 5.58941 11.4515 5.23181 11.9511C4.8742 12.4507 4.6836 13.0505 4.68721 13.6649C4.69083 14.2793 4.88849 14.8768 5.25196 15.3721C5.61542 15.8675 6.12611 16.2353 6.7111 16.4231C7.29608 16.6109 7.92545 16.609 8.50931 16.4178C9.09317 16.2265 9.60168 15.8557 9.96221 15.3582C10.3227 14.8607 10.5169 14.262 10.5169 13.6477V0H13.9544C13.952 0.290289 13.9763 0.580182 14.027 0.866016C14.1465 1.50409 14.3948 2.1111 14.7569 2.6499C15.119 3.1887 15.5872 3.64796 16.1329 3.99961C16.9092 4.51293 17.8194 4.78652 18.7501 4.78633V8.19961Z" fill="white"/>
</svg>
